<?xml version="1.0" encoding="UTF-8" standalone="no"?>
<!DOCTYPE svg PUBLIC "-//W3C//DTD SVG 1.1//EN"
 "http://www.w3.org/Graphics/SVG/1.1/DTD/svg11.dtd">
<!-- Generated by graphviz version 14.1.1 (20251213.1925)
 -->
<!-- Title: glslstruct::utils::has_layout_traits_opt_after_add_array&lt; T, std::void_t&lt; decltype(T::after_add_array)&gt; &gt; Pages: 1 -->
<svg width="547pt" height="116pt"
 viewBox="0.00 0.00 547.00 116.00" xmlns="http://www.w3.org/2000/svg" xmlns:xlink="http://www.w3.org/1999/xlink">
<g id="graph0" class="graph" transform="scale(1 1) rotate(0) translate(4 112.4)">
<title>glslstruct::utils::has_layout_traits_opt_after_add_array&lt; T, std::void_t&lt; decltype(T::after_add_array)&gt; &gt;</title>
<!-- Node1 -->
<g id="Node000001" class="node">
<title>Node1</title>
<g id="a_Node000001"><a xlink:title=" ">
<polygon fill="#999999" stroke="#666666" points="538.75,-94 411,-94 411,-26 538.75,-26 538.75,-94"/>
<text xml:space="preserve" text-anchor="start" x="419" y="-80.5" font-family="Helvetica,sans-Serif" font-size="10.00">glslstruct::utils::</text>
<text xml:space="preserve" text-anchor="start" x="419" y="-68.5" font-family="Helvetica,sans-Serif" font-size="10.00">has_layout_traits_opt</text>
<text xml:space="preserve" text-anchor="start" x="419" y="-56.5" font-family="Helvetica,sans-Serif" font-size="10.00">_after_add_array&lt; T, std</text>
<text xml:space="preserve" text-anchor="start" x="419" y="-44.5" font-family="Helvetica,sans-Serif" font-size="10.00">::void_t&lt; decltype(T::after</text>
<text xml:space="preserve" text-anchor="middle" x="474.88" y="-32.5" font-family="Helvetica,sans-Serif" font-size="10.00">_add_array)&gt; &gt;</text>
</a>
</g>
</g>
<!-- Node2 -->
<g id="Node000002" class="node">
<title>Node2</title>
<g id="a_Node000002"><a xlink:title=" ">
<polygon fill="white" stroke="#666666" points="80.5,-95 0,-95 0,-75 80.5,-75 80.5,-95"/>
<text xml:space="preserve" text-anchor="middle" x="40.25" y="-81.5" font-family="Helvetica,sans-Serif" font-size="10.00">std::false_type</text>
</a>
</g>
</g>
<!-- Node2&#45;&gt;Node1 -->
<g id="edge1_Node000001_Node000002" class="edge">
<title>Node2&#45;&gt;Node1</title>
<g id="a_edge1_Node000001_Node000002"><a xlink:title=" ">
<path fill="none" stroke="#63b8ff" d="M91.79,-94.07C160.73,-104.74 287.7,-118.38 393,-96 398.86,-94.75 404.82,-93.05 410.7,-91.06"/>
<polygon fill="#63b8ff" stroke="#63b8ff" points="92.75,-90.67 82.33,-92.55 91.65,-97.59 92.75,-90.67"/>
</a>
</g>
</g>
<!-- Node4 -->
<g id="Node000004" class="node">
<title>Node4</title>
<g id="a_Node000004"><a xlink:href="../../d4/d45/structglslstruct_1_1utils_1_1has__layout__traits__opt__after__add__array.html" target="_top" xlink:title=" ">
<polygon fill="white" stroke="#666666" points="258,-82 117.5,-82 117.5,-38 258,-38 258,-82"/>
<text xml:space="preserve" text-anchor="start" x="125.5" y="-68.5" font-family="Helvetica,sans-Serif" font-size="10.00">glslstruct::utils::</text>
<text xml:space="preserve" text-anchor="start" x="125.5" y="-56.5" font-family="Helvetica,sans-Serif" font-size="10.00">has_layout_traits_opt</text>
<text xml:space="preserve" text-anchor="middle" x="187.75" y="-44.5" font-family="Helvetica,sans-Serif" font-size="10.00">_after_add_array&lt; T, class &gt;</text>
</a>
</g>
</g>
<!-- Node2&#45;&gt;Node4 -->
<g id="edge4_Node000004_Node000002" class="edge">
<title>Node2&#45;&gt;Node4</title>
<g id="a_edge4_Node000004_Node000002"><a xlink:title=" ">
<path fill="none" stroke="#63b8ff" d="M91.83,-76.31C99.99,-74.91 108.56,-73.44 117.07,-71.97"/>
<polygon fill="#63b8ff" stroke="#63b8ff" points="91.38,-72.84 82.12,-77.98 92.56,-79.73 91.38,-72.84"/>
</a>
</g>
</g>
<!-- Node3 -->
<g id="Node000003" class="node">
<title>Node3</title>
<g id="a_Node000003"><a xlink:title=" ">
<polygon fill="white" stroke="#666666" points="225.75,-20 149.75,-20 149.75,0 225.75,0 225.75,-20"/>
<text xml:space="preserve" text-anchor="middle" x="187.75" y="-6.5" font-family="Helvetica,sans-Serif" font-size="10.00">std::true_type</text>
</a>
</g>
</g>
<!-- Node3&#45;&gt;Node1 -->
<g id="edge2_Node000001_Node000003" class="edge">
<title>Node3&#45;&gt;Node1</title>
<g id="a_edge2_Node000001_Node000003"><a xlink:title=" ">
<path fill="none" stroke="#63b8ff" d="M237.31,-18.51C285.12,-26.9 358.38,-39.75 410.7,-48.92"/>
<polygon fill="#63b8ff" stroke="#63b8ff" points="237.97,-15.08 227.52,-16.8 236.76,-21.97 237.97,-15.08"/>
</a>
</g>
</g>
<!-- Node4&#45;&gt;Node1 -->
<g id="edge3_Node000001_Node000004" class="edge">
<title>Node4&#45;&gt;Node1</title>
<g id="a_edge3_Node000001_Node000004"><a xlink:title=" ">
<path fill="none" stroke="orange" stroke-dasharray="5,2" d="M269.92,-60C314.6,-60 369.22,-60 410.68,-60"/>
<polygon fill="orange" stroke="orange" points="270.01,-56.5 260.01,-60 270.01,-63.5 270.01,-56.5"/>
</a>
</g>
<text xml:space="preserve" text-anchor="start" x="279" y="-81.5" font-family="Helvetica,sans-Serif" font-size="10.00" fill="grey">&lt; T, std::void_t&lt; decltype</text>
<text xml:space="preserve" text-anchor="start" x="279" y="-65.5" font-family="Helvetica,sans-Serif" font-size="10.00" fill="grey">  (T::after_add_array)&gt; &gt;</text>
</g>
</g>
</svg>
