<?xml version="1.0" encoding="UTF-8" standalone="no"?>
<!DOCTYPE svg PUBLIC "-//W3C//DTD SVG 1.1//EN"
 "http://www.w3.org/Graphics/SVG/1.1/DTD/svg11.dtd">
<!-- Generated by graphviz version 14.1.1 (20251213.1925)
 -->
<!-- Title: glslstruct::mat_type Pages: 1 -->
<svg width="243pt" height="333pt"
 viewBox="0.00 0.00 243.00 333.00" xmlns="http://www.w3.org/2000/svg" xmlns:xlink="http://www.w3.org/1999/xlink">

<svg id="main" version="1.1" xmlns="http://www.w3.org/2000/svg" xmlns:xlink="http://www.w3.org/1999/xlink" xml:space="preserve">

<style type="text/css"><![CDATA[
.node, .edge {opacity: 0.7;}
.node.selected, .edge.selected {opacity: 1;}
.edge:hover path { stroke: red; }
.edge:hover polygon { stroke: red; fill: red; }
]]></style>
<script type="application/ecmascript" xlink:href="../../svg.min.js"/>
<svg id="graph" class="graph">
<g id="graph0" class="graph" transform="scale(1 1) rotate(0) translate(4 329)">
<title>glslstruct::mat_type</title>
<!-- Node1 -->
<g id="Node000001" class="node">
<title>Node1</title>
<g id="a_Node000001"><a xlink:title="mat type container">
<polygon fill="#999999" stroke="#666666" points="137.25,-20 35,-20 35,0 137.25,0 137.25,-20"/>
<text xml:space="preserve" text-anchor="middle" x="86.12" y="-6.5" font-family="Helvetica,sans-Serif" font-size="10.00">glslstruct::mat_type</text>
</a>
</g>
</g>
<!-- Node2 -->
<g id="Node000002" class="node">
<title>Node2</title>
<g id="a_Node000002"><a xlink:href="../../d4/db0/classglslstruct_1_1type.html" target="_top" xlink:title=" ">
<polygon fill="white" stroke="#666666" points="139.12,-106 33.12,-106 33.12,-74 139.12,-74 139.12,-106"/>
<text xml:space="preserve" text-anchor="start" x="41.12" y="-92.5" font-family="Helvetica,sans-Serif" font-size="10.00">glslstruct::type&lt; mat</text>
<text xml:space="preserve" text-anchor="middle" x="86.12" y="-80.5" font-family="Helvetica,sans-Serif" font-size="10.00">_type &gt;</text>
</a>
</g>
</g>
<!-- Node2&#45;&gt;Node1 -->
<g id="edge1_Node000001_Node000002" class="edge">
<title>Node2&#45;&gt;Node1</title>
<g id="a_edge1_Node000001_Node000002"><a xlink:title=" ">
<path fill="none" stroke="#63b8ff" d="M86.12,-62.23C86.12,-47.77 86.12,-30.81 86.12,-20.49"/>
<polygon fill="#63b8ff" stroke="#63b8ff" points="82.63,-62.08 86.13,-72.08 89.63,-62.08 82.63,-62.08"/>
</a>
</g>
</g>
<!-- Node3 -->
<g id="Node000003" class="node">
<title>Node3</title>
<g id="a_Node000003"><a xlink:href="../../d6/df9/classglslstruct_1_1base__type.html" target="_top" xlink:title="base class for all glsl type containers">
<polygon fill="white" stroke="#666666" points="139.5,-251 32.75,-251 32.75,-231 139.5,-231 139.5,-251"/>
<text xml:space="preserve" text-anchor="middle" x="86.12" y="-237.5" font-family="Helvetica,sans-Serif" font-size="10.00">glslstruct::base_type</text>
</a>
</g>
</g>
<!-- Node3&#45;&gt;Node2 -->
<g id="edge2_Node000002_Node000003" class="edge">
<title>Node3&#45;&gt;Node2</title>
<g id="a_edge2_Node000002_Node000003"><a xlink:title=" ">
<path fill="none" stroke="#63b8ff" d="M86.12,-219.43C86.12,-189.14 86.12,-133.25 86.12,-106.31"/>
<polygon fill="#63b8ff" stroke="#63b8ff" points="82.63,-219.17 86.13,-229.17 89.63,-219.17 82.63,-219.17"/>
</a>
</g>
</g>
<!-- Node5 -->
<g id="Node000005" class="node">
<title>Node5</title>
<g id="a_Node000005"><a xlink:href="../../d4/db0/classglslstruct_1_1type.html" target="_top" xlink:title="intermediate glsl type containers">
<polygon fill="white" stroke="#666666" points="235.25,-187 103,-187 103,-167 235.25,-167 235.25,-187"/>
<text xml:space="preserve" text-anchor="middle" x="169.12" y="-173.5" font-family="Helvetica,sans-Serif" font-size="10.00">glslstruct::type&lt; Derived &gt;</text>
</a>
</g>
</g>
<!-- Node3&#45;&gt;Node5 -->
<g id="edge5_Node000005_Node000003" class="edge">
<title>Node3&#45;&gt;Node5</title>
<g id="a_edge5_Node000005_Node000003"><a xlink:title=" ">
<path fill="none" stroke="#63b8ff" d="M107.68,-223.9C123.25,-212.27 143.74,-196.96 156.67,-187.3"/>
<polygon fill="#63b8ff" stroke="#63b8ff" points="105.86,-220.89 99.94,-229.68 110.05,-226.5 105.86,-220.89"/>
</a>
</g>
</g>
<!-- Node4 -->
<g id="Node000004" class="node">
<title>Node4</title>
<g id="a_Node000004"><a xlink:title=" ">
<polygon fill="white" stroke="#666666" points="42.25,-325 0,-325 0,-305 42.25,-305 42.25,-325"/>
<text xml:space="preserve" text-anchor="middle" x="21.12" y="-311.5" font-family="Helvetica,sans-Serif" font-size="10.00">size_t</text>
</a>
</g>
</g>
<!-- Node4&#45;&gt;Node1 -->
<g id="edge6_Node000001_Node000004" class="edge">
<title>Node4&#45;&gt;Node1</title>
<g id="a_edge6_Node000001_Node000004"><a xlink:title=" ">
<path fill="none" stroke="#9a32cd" stroke-dasharray="5,2" d="M14.3,-294.28C9.95,-279.96 5.12,-260.01 5.12,-242 5.12,-242 5.12,-242 5.12,-89 5.12,-56.01 40.43,-32.58 64.42,-20.47"/>
<polygon fill="#9a32cd" stroke="#9a32cd" points="10.84,-294.96 17.26,-303.39 17.5,-292.79 10.84,-294.96"/>
</a>
</g>
<text xml:space="preserve" text-anchor="start" x="8.12" y="-181.5" font-family="Helvetica,sans-Serif" font-size="10.00" fill="grey">_cols</text>
<text xml:space="preserve" text-anchor="start" x="8.12" y="-165.5" font-family="Helvetica,sans-Serif" font-size="10.00" fill="grey">_rows</text>
</g>
<!-- Node4&#45;&gt;Node3 -->
<g id="edge3_Node000003_Node000004" class="edge">
<title>Node4&#45;&gt;Node3</title>
<g id="a_edge3_Node000003_Node000004"><a xlink:title=" ">
<path fill="none" stroke="#9a32cd" stroke-dasharray="5,2" d="M37.29,-296.09C50.16,-281.84 67.65,-262.46 77.83,-251.19"/>
<polygon fill="#9a32cd" stroke="#9a32cd" points="34.74,-293.7 30.64,-303.46 39.94,-298.39 34.74,-293.7"/>
</a>
</g>
<text xml:space="preserve" text-anchor="start" x="64.36" y="-274.5" font-family="Helvetica,sans-Serif" font-size="10.00" fill="grey">_size</text>
</g>
<!-- Node5&#45;&gt;Node2 -->
<g id="edge4_Node000002_Node000005" class="edge">
<title>Node5&#45;&gt;Node2</title>
<g id="a_edge4_Node000002_Node000005"><a xlink:title=" ">
<path fill="none" stroke="orange" stroke-dasharray="5,2" d="M151.93,-158.39C136.89,-142.99 115.26,-120.84 100.96,-106.19"/>
<polygon fill="orange" stroke="orange" points="149.38,-160.79 158.87,-165.5 154.39,-155.9 149.38,-160.79"/>
</a>
</g>
<text xml:space="preserve" text-anchor="start" x="138.06" y="-129.5" font-family="Helvetica,sans-Serif" font-size="10.00" fill="grey">&lt; mat_type &gt;</text>
</g>
<!-- Node6 -->
<g id="Node000006" class="node">
<title>Node6</title>
<g id="a_Node000006"><a xlink:title=" ">
<polygon fill="white" stroke="#666666" points="218.62,-100 157.62,-100 157.62,-80 218.62,-80 218.62,-100"/>
<text xml:space="preserve" text-anchor="middle" x="188.12" y="-86.5" font-family="Helvetica,sans-Serif" font-size="10.00">ValueType</text>
</a>
</g>
</g>
<!-- Node6&#45;&gt;Node1 -->
<g id="edge7_Node000001_Node000006" class="edge">
<title>Node6&#45;&gt;Node1</title>
<g id="a_edge7_Node000001_Node000006"><a xlink:title=" ">
<path fill="none" stroke="#9a32cd" stroke-dasharray="5,2" d="M167.06,-72.89C146.39,-57.08 115.55,-33.5 98.53,-20.49"/>
<polygon fill="#9a32cd" stroke="#9a32cd" points="164.75,-75.53 174.82,-78.83 169,-69.97 164.75,-75.53"/>
</a>
</g>
<text xml:space="preserve" text-anchor="start" x="146.23" y="-43.5" font-family="Helvetica,sans-Serif" font-size="10.00" fill="grey">_type</text>
</g>
</g>
</svg>
</svg>

<style type='text/css'>
<![CDATA[
[data-mouse-over-selected='false'] { opacity: 0.7; }
[data-mouse-over-selected='true']  { opacity: 1.0; }
]]>
</style>
<script type="application/ecmascript"><![CDATA[
document.addEventListener('DOMContentLoaded', (event) => {
  highlightEdges();
  highlightAdjacentNodes();
});
]]></script>
</svg>
