<?xml version="1.0" encoding="UTF-8" standalone="no"?>
<!DOCTYPE svg PUBLIC "-//W3C//DTD SVG 1.1//EN"
 "http://www.w3.org/Graphics/SVG/1.1/DTD/svg11.dtd">
<!-- Generated by graphviz version 14.1.1 (20251213.1925)
 -->
<!-- Title: glslstruct::utils::has_layout_traits_opt_before_add_scalar&lt; T, std::void_t&lt; decltype(T::before_add_scalar)&gt; &gt; Pages: 1 -->
<svg width="530pt" height="125pt"
 viewBox="0.00 0.00 530.00 125.00" xmlns="http://www.w3.org/2000/svg" xmlns:xlink="http://www.w3.org/1999/xlink">
<g id="graph0" class="graph" transform="scale(1 1) rotate(0) translate(4 120.58)">
<title>glslstruct::utils::has_layout_traits_opt_before_add_scalar&lt; T, std::void_t&lt; decltype(T::before_add_scalar)&gt; &gt;</title>
<!-- Node1 -->
<g id="Node000001" class="node">
<title>Node1</title>
<g id="a_Node000001"><a xlink:title=" ">
<polygon fill="#999999" stroke="#666666" points="522.25,-100 394.5,-100 394.5,-32 522.25,-32 522.25,-100"/>
<text xml:space="preserve" text-anchor="start" x="402.5" y="-86.5" font-family="Helvetica,sans-Serif" font-size="10.00">glslstruct::utils::</text>
<text xml:space="preserve" text-anchor="start" x="402.5" y="-74.5" font-family="Helvetica,sans-Serif" font-size="10.00">has_layout_traits_opt</text>
<text xml:space="preserve" text-anchor="start" x="402.5" y="-62.5" font-family="Helvetica,sans-Serif" font-size="10.00">_before_add_scalar&lt; T,</text>
<text xml:space="preserve" text-anchor="start" x="402.5" y="-50.5" font-family="Helvetica,sans-Serif" font-size="10.00"> std::void_t&lt; decltype</text>
<text xml:space="preserve" text-anchor="middle" x="458.38" y="-38.5" font-family="Helvetica,sans-Serif" font-size="10.00">(T::before_add_scalar)&gt; &gt;</text>
</a>
</g>
</g>
<!-- Node2 -->
<g id="Node000002" class="node">
<title>Node2</title>
<g id="a_Node000002"><a xlink:title=" ">
<polygon fill="white" stroke="#666666" points="80.5,-104 0,-104 0,-84 80.5,-84 80.5,-104"/>
<text xml:space="preserve" text-anchor="middle" x="40.25" y="-90.5" font-family="Helvetica,sans-Serif" font-size="10.00">std::false_type</text>
</a>
</g>
</g>
<!-- Node2&#45;&gt;Node1 -->
<g id="edge1_Node000001_Node000002" class="edge">
<title>Node2&#45;&gt;Node1</title>
<g id="a_edge1_Node000001_Node000002"><a xlink:title=" ">
<path fill="none" stroke="#63b8ff" d="M92.18,-103.25C158.53,-113.55 277.72,-126.05 376.5,-104 382.4,-102.68 388.39,-100.88 394.29,-98.78"/>
<polygon fill="#63b8ff" stroke="#63b8ff" points="92.74,-99.79 82.31,-101.66 91.63,-106.7 92.74,-99.79"/>
</a>
</g>
</g>
<!-- Node4 -->
<g id="Node000004" class="node">
<title>Node4</title>
<g id="a_Node000004"><a xlink:href="../../db/d4e/structglslstruct_1_1utils_1_1has__layout__traits__opt__before__add__scalar.html" target="_top" xlink:title=" ">
<polygon fill="white" stroke="#666666" points="234.75,-94 117.5,-94 117.5,-38 234.75,-38 234.75,-94"/>
<text xml:space="preserve" text-anchor="start" x="125.5" y="-80.5" font-family="Helvetica,sans-Serif" font-size="10.00">glslstruct::utils::</text>
<text xml:space="preserve" text-anchor="start" x="125.5" y="-68.5" font-family="Helvetica,sans-Serif" font-size="10.00">has_layout_traits_opt</text>
<text xml:space="preserve" text-anchor="start" x="125.5" y="-56.5" font-family="Helvetica,sans-Serif" font-size="10.00">_before_add_scalar&lt; T,</text>
<text xml:space="preserve" text-anchor="middle" x="176.12" y="-44.5" font-family="Helvetica,sans-Serif" font-size="10.00"> class &gt;</text>
</a>
</g>
</g>
<!-- Node2&#45;&gt;Node4 -->
<g id="edge4_Node000004_Node000002" class="edge">
<title>Node2&#45;&gt;Node4</title>
<g id="a_edge4_Node000004_Node000002"><a xlink:title=" ">
<path fill="none" stroke="#63b8ff" d="M91.72,-83.44C100.01,-81.71 108.66,-79.9 117.11,-78.13"/>
<polygon fill="#63b8ff" stroke="#63b8ff" points="91.25,-79.97 82.17,-85.44 92.68,-86.82 91.25,-79.97"/>
</a>
</g>
</g>
<!-- Node3 -->
<g id="Node000003" class="node">
<title>Node3</title>
<g id="a_Node000003"><a xlink:title=" ">
<polygon fill="white" stroke="#666666" points="214.12,-20 138.12,-20 138.12,0 214.12,0 214.12,-20"/>
<text xml:space="preserve" text-anchor="middle" x="176.12" y="-6.5" font-family="Helvetica,sans-Serif" font-size="10.00">std::true_type</text>
</a>
</g>
</g>
<!-- Node3&#45;&gt;Node1 -->
<g id="edge2_Node000001_Node000003" class="edge">
<title>Node3&#45;&gt;Node1</title>
<g id="a_edge2_Node000001_Node000003"><a xlink:title=" ">
<path fill="none" stroke="#63b8ff" d="M225.37,-19.64C272.04,-28.97 343.05,-43.16 394.21,-53.38"/>
<polygon fill="#63b8ff" stroke="#63b8ff" points="226.32,-16.26 215.82,-17.73 224.94,-23.12 226.32,-16.26"/>
</a>
</g>
</g>
<!-- Node4&#45;&gt;Node1 -->
<g id="edge3_Node000001_Node000004" class="edge">
<title>Node4&#45;&gt;Node1</title>
<g id="a_edge3_Node000001_Node000004"><a xlink:title=" ">
<path fill="none" stroke="orange" stroke-dasharray="5,2" d="M246.66,-66C291.8,-66 350.16,-66 394.01,-66"/>
<polygon fill="orange" stroke="orange" points="246.71,-62.5 236.71,-66 246.71,-69.5 246.71,-62.5"/>
</a>
</g>
<text xml:space="preserve" text-anchor="start" x="255.75" y="-87.5" font-family="Helvetica,sans-Serif" font-size="10.00" fill="grey">&lt; T, std::void_t&lt; decltype</text>
<text xml:space="preserve" text-anchor="start" x="255.75" y="-71.5" font-family="Helvetica,sans-Serif" font-size="10.00" fill="grey">  (T::before_add_scalar)&gt; &gt;</text>
</g>
</g>
</svg>
