<?xml version="1.0" encoding="UTF-8" standalone="no"?>
<!DOCTYPE svg PUBLIC "-//W3C//DTD SVG 1.1//EN"
 "http://www.w3.org/Graphics/SVG/1.1/DTD/svg11.dtd">
<!-- Generated by graphviz version 14.1.1 (20251213.1925)
 -->
<!-- Title: glslstruct::utils::glsl_array_count_getter Pages: 1 -->
<svg width="188pt" height="183pt"
 viewBox="0.00 0.00 188.00 183.00" xmlns="http://www.w3.org/2000/svg" xmlns:xlink="http://www.w3.org/1999/xlink">
<g id="graph0" class="graph" transform="scale(1 1) rotate(0) translate(4 179)">
<title>glslstruct::utils::glsl_array_count_getter</title>
<!-- Node1 -->
<g id="Node000001" class="node">
<title>Node1</title>
<g id="a_Node000001"><a xlink:title="type visitor which gets array and sub arrays counts in format [0][1]...">
<polygon fill="#999999" stroke="#666666" points="133.62,-32 16.38,-32 16.38,0 133.62,0 133.62,-32"/>
<text xml:space="preserve" text-anchor="start" x="24.38" y="-18.5" font-family="Helvetica,sans-Serif" font-size="10.00">glslstruct::utils::</text>
<text xml:space="preserve" text-anchor="middle" x="75" y="-6.5" font-family="Helvetica,sans-Serif" font-size="10.00">glsl_array_count_getter</text>
</a>
</g>
</g>
<!-- Node2 -->
<g id="Node000002" class="node">
<title>Node2</title>
<g id="a_Node000002"><a xlink:title=" ">
<polygon fill="white" stroke="#666666" points="34,-106 0,-106 0,-86 34,-86 34,-106"/>
<text xml:space="preserve" text-anchor="middle" x="17" y="-92.5" font-family="Helvetica,sans-Serif" font-size="10.00">bool</text>
</a>
</g>
</g>
<!-- Node2&#45;&gt;Node1 -->
<g id="edge1_Node000001_Node000002" class="edge">
<title>Node2&#45;&gt;Node1</title>
<g id="a_edge1_Node000001_Node000002"><a xlink:title=" ">
<path fill="none" stroke="#9a32cd" stroke-dasharray="5,2" d="M13.3,-74.46C12.86,-66.34 13.72,-57.24 18,-50 22.25,-42.82 28.71,-37.04 35.78,-32.47"/>
<polygon fill="#9a32cd" stroke="#9a32cd" points="9.8,-74.67 14.51,-84.16 16.75,-73.8 9.8,-74.67"/>
</a>
</g>
<text xml:space="preserve" text-anchor="start" x="21" y="-55.5" font-family="Helvetica,sans-Serif" font-size="10.00" fill="grey">_canBeVariableSize</text>
</g>
<!-- Node3 -->
<g id="Node000003" class="node">
<title>Node3</title>
<g id="a_Node000003"><a xlink:title=" ">
<polygon fill="white" stroke="#666666" points="162.75,-106 103.25,-106 103.25,-86 162.75,-86 162.75,-106"/>
<text xml:space="preserve" text-anchor="middle" x="133" y="-92.5" font-family="Helvetica,sans-Serif" font-size="10.00">std::string</text>
</a>
</g>
</g>
<!-- Node3&#45;&gt;Node1 -->
<g id="edge2_Node000001_Node000003" class="edge">
<title>Node3&#45;&gt;Node1</title>
<g id="a_edge2_Node000001_Node000003"><a xlink:title=" ">
<path fill="none" stroke="#9a32cd" stroke-dasharray="5,2" d="M125.29,-75.29C121.6,-67.07 116.73,-57.67 111,-50 106.23,-43.62 100.11,-37.47 94.27,-32.25"/>
<polygon fill="#9a32cd" stroke="#9a32cd" points="122.02,-76.54 129.11,-84.42 128.48,-73.85 122.02,-76.54"/>
</a>
</g>
<text xml:space="preserve" text-anchor="start" x="124.63" y="-55.5" font-family="Helvetica,sans-Serif" font-size="10.00" fill="grey">_result</text>
</g>
<!-- Node4 -->
<g id="Node000004" class="node">
<title>Node4</title>
<g id="a_Node000004"><a xlink:title=" ">
<polygon fill="white" stroke="#666666" points="180,-175 86,-175 86,-143 180,-143 180,-175"/>
<text xml:space="preserve" text-anchor="start" x="94" y="-161.5" font-family="Helvetica,sans-Serif" font-size="10.00">std::basic_string&lt;</text>
<text xml:space="preserve" text-anchor="middle" x="133" y="-149.5" font-family="Helvetica,sans-Serif" font-size="10.00"> Char &gt;</text>
</a>
</g>
</g>
<!-- Node4&#45;&gt;Node3 -->
<g id="edge3_Node000003_Node000004" class="edge">
<title>Node4&#45;&gt;Node3</title>
<g id="a_edge3_Node000003_Node000004"><a xlink:title=" ">
<path fill="none" stroke="#63b8ff" d="M133,-131.36C133,-122.41 133,-113.01 133,-106.31"/>
<polygon fill="#63b8ff" stroke="#63b8ff" points="129.5,-131.09 133,-141.09 136.5,-131.09 129.5,-131.09"/>
</a>
</g>
</g>
</g>
</svg>
