<?xml version="1.0" encoding="UTF-8" standalone="no"?>
<!DOCTYPE svg PUBLIC "-//W3C//DTD SVG 1.1//EN"
 "http://www.w3.org/Graphics/SVG/1.1/DTD/svg11.dtd">
<!-- Generated by graphviz version 14.1.1 (20251213.1925)
 -->
<!-- Title: Graphical Class Hierarchy Pages: 1 -->
<svg width="410pt" height="1058pt"
 viewBox="0.00 0.00 410.00 1058.00" xmlns="http://www.w3.org/2000/svg" xmlns:xlink="http://www.w3.org/1999/xlink">
<g id="graph0" class="graph" transform="scale(1 1) rotate(0) translate(4 1054)">
<title>Graphical Class Hierarchy</title>
<!-- Node0 -->
<g id="Node000000" class="node">
<title>Node0</title>
<g id="a_Node000000"><a xlink:title=" ">
<polygon fill="#e0e0e0" stroke="#999999" points="96.25,-869 0,-869 0,-849 96.25,-849 96.25,-869"/>
<text xml:space="preserve" text-anchor="middle" x="48.12" y="-855.5" font-family="Helvetica,sans-Serif" font-size="10.00">std::bool_constant</text>
</a>
</g>
</g>
<!-- Node1 -->
<g id="Node000001" class="node">
<title>Node1</title>
<g id="a_Node000001"><a xlink:href="d1/d2f/structglslstruct_1_1base__struct_1_1is__glsl__simple__or__layout__struct.html" target="_top" xlink:title="check if type is simple glsl type or struct with given layout">
<polygon fill="white" stroke="#666666" points="263,-800 132.25,-800 132.25,-756 263,-756 263,-800"/>
<text xml:space="preserve" text-anchor="start" x="140.25" y="-786.5" font-family="Helvetica,sans-Serif" font-size="10.00">glslstruct::base_struct</text>
<text xml:space="preserve" text-anchor="start" x="140.25" y="-774.5" font-family="Helvetica,sans-Serif" font-size="10.00">&lt; Layout &gt;::is_glsl_simple</text>
<text xml:space="preserve" text-anchor="middle" x="197.62" y="-762.5" font-family="Helvetica,sans-Serif" font-size="10.00">_or_layout_struct&lt; T &gt;</text>
</a>
</g>
</g>
<!-- Node0&#45;&gt;Node1 -->
<g id="edge18_Node000000_Node000001" class="edge">
<title>Node0&#45;&gt;Node1</title>
<g id="a_edge18_Node000000_Node000001"><a xlink:title=" ">
<path fill="none" stroke="#63b8ff" d="M74.79,-842.72C91.04,-832.62 112.62,-819.6 132.25,-809 137.6,-806.11 143.26,-803.19 148.91,-800.36"/>
<polygon fill="#63b8ff" stroke="#63b8ff" points="73.33,-839.51 66.71,-847.78 77.04,-845.44 73.33,-839.51"/>
</a>
</g>
</g>
<!-- Node2 -->
<g id="Node000002" class="node">
<title>Node2</title>
<g id="a_Node000002"><a xlink:href="d4/d54/structglslstruct_1_1is__layout__traits.html" target="_top" xlink:title="Type trait to check if T is a valid layout trait.">
<polygon fill="white" stroke="#666666" points="248,-738 147.25,-738 147.25,-706 248,-706 248,-738"/>
<text xml:space="preserve" text-anchor="start" x="155.25" y="-724.5" font-family="Helvetica,sans-Serif" font-size="10.00">glslstruct::is_layout</text>
<text xml:space="preserve" text-anchor="middle" x="197.62" y="-712.5" font-family="Helvetica,sans-Serif" font-size="10.00">_traits&lt; T &gt;</text>
</a>
</g>
</g>
<!-- Node0&#45;&gt;Node2 -->
<g id="edge19_Node000000_Node000002" class="edge">
<title>Node0&#45;&gt;Node2</title>
<g id="a_edge19_Node000000_Node000002"><a xlink:title=" ">
<path fill="none" stroke="#63b8ff" d="M59.68,-838.39C73.34,-813.56 99.35,-772.08 132.25,-747 136.73,-743.58 141.74,-740.58 146.92,-737.95"/>
<polygon fill="#63b8ff" stroke="#63b8ff" points="56.62,-836.7 55,-847.17 62.79,-839.99 56.62,-836.7"/>
</a>
</g>
</g>
<!-- Node3 -->
<g id="Node000003" class="node">
<title>Node3</title>
<g id="a_Node000003"><a xlink:href="dc/def/structglslstruct_1_1is__type__visitor.html" target="_top" xlink:title="struct with bool_constant which is true if type T is type visitor">
<polygon fill="white" stroke="#666666" points="244.25,-1050 151,-1050 151,-1018 244.25,-1018 244.25,-1050"/>
<text xml:space="preserve" text-anchor="start" x="159" y="-1036.5" font-family="Helvetica,sans-Serif" font-size="10.00">glslstruct::is_type</text>
<text xml:space="preserve" text-anchor="middle" x="197.62" y="-1024.5" font-family="Helvetica,sans-Serif" font-size="10.00">_visitor&lt; T &gt;</text>
</a>
</g>
</g>
<!-- Node0&#45;&gt;Node3 -->
<g id="edge20_Node000000_Node000003" class="edge">
<title>Node0&#45;&gt;Node3</title>
<g id="a_edge20_Node000000_Node000003"><a xlink:title=" ">
<path fill="none" stroke="#63b8ff" d="M55.59,-880.07C66.45,-912.14 91.28,-973.24 132.25,-1009 137.67,-1013.73 144.09,-1017.62 150.73,-1020.79"/>
<polygon fill="#63b8ff" stroke="#63b8ff" points="58.99,-879.19 52.58,-870.76 52.33,-881.35 58.99,-879.19"/>
</a>
</g>
</g>
<!-- Node4 -->
<g id="Node000004" class="node">
<title>Node4</title>
<g id="a_Node000004"><a xlink:href="d2/dfc/structglslstruct_1_1utils_1_1is__glsl__layout__struct_3_01base__struct_3_01_layout_01_4_00_01_l_01_4.html" target="_top" xlink:title=" ">
<polygon fill="white" stroke="#666666" points="254.75,-688 140.5,-688 140.5,-632 254.75,-632 254.75,-688"/>
<text xml:space="preserve" text-anchor="start" x="148.5" y="-674.5" font-family="Helvetica,sans-Serif" font-size="10.00">glslstruct::utils::</text>
<text xml:space="preserve" text-anchor="start" x="148.5" y="-662.5" font-family="Helvetica,sans-Serif" font-size="10.00">is_glsl_layout_struct</text>
<text xml:space="preserve" text-anchor="start" x="148.5" y="-650.5" font-family="Helvetica,sans-Serif" font-size="10.00">&lt; base_struct&lt; Layout</text>
<text xml:space="preserve" text-anchor="middle" x="197.62" y="-638.5" font-family="Helvetica,sans-Serif" font-size="10.00"> &gt;, L &gt;</text>
</a>
</g>
</g>
<!-- Node0&#45;&gt;Node4 -->
<g id="edge21_Node000000_Node000004" class="edge">
<title>Node0&#45;&gt;Node4</title>
<g id="a_edge21_Node000000_Node000004"><a xlink:title=" ">
<path fill="none" stroke="#63b8ff" d="M55.56,-837.95C66.63,-804.62 92.03,-739.18 132.25,-697 135.19,-693.92 138.43,-691.02 141.87,-688.31"/>
<polygon fill="#63b8ff" stroke="#63b8ff" points="52.31,-836.64 52.59,-847.23 58.97,-838.77 52.31,-836.64"/>
</a>
</g>
</g>
<!-- Node19 -->
<g id="Node000019" class="node">
<title>Node19</title>
<g id="a_Node000019"><a xlink:href="d5/d60/structglslstruct_1_1utils_1_1is__glsl__mat.html" target="_top" xlink:title="struct with bool_constant which is true if type can be converted to glsl mat type">
<polygon fill="white" stroke="#666666" points="242,-1000 153.25,-1000 153.25,-968 242,-968 242,-1000"/>
<text xml:space="preserve" text-anchor="start" x="161.25" y="-986.5" font-family="Helvetica,sans-Serif" font-size="10.00">glslstruct::utils::</text>
<text xml:space="preserve" text-anchor="middle" x="197.62" y="-974.5" font-family="Helvetica,sans-Serif" font-size="10.00">is_glsl_mat&lt; T &gt;</text>
</a>
</g>
</g>
<!-- Node0&#45;&gt;Node19 -->
<g id="edge22_Node000000_Node000019" class="edge">
<title>Node0&#45;&gt;Node19</title>
<g id="a_edge22_Node000000_Node000019"><a xlink:title=" ">
<path fill="none" stroke="#63b8ff" d="M61.26,-878.98C75.69,-901.25 101.7,-937.01 132.25,-959 138.48,-963.48 145.62,-967.29 152.82,-970.47"/>
<polygon fill="#63b8ff" stroke="#63b8ff" points="64.23,-877.13 55.94,-870.53 58.31,-880.86 64.23,-877.13"/>
</a>
</g>
</g>
<!-- Node20 -->
<g id="Node000020" class="node">
<title>Node20</title>
<g id="a_Node000020"><a xlink:href="d5/d76/structglslstruct_1_1utils_1_1is__glsl__scalar.html" target="_top" xlink:title="struct with bool_constant which is true if type can be converted to glsl scalar type">
<polygon fill="white" stroke="#666666" points="246.88,-950 148.38,-950 148.38,-918 246.88,-918 246.88,-950"/>
<text xml:space="preserve" text-anchor="start" x="156.38" y="-936.5" font-family="Helvetica,sans-Serif" font-size="10.00">glslstruct::utils::</text>
<text xml:space="preserve" text-anchor="middle" x="197.62" y="-924.5" font-family="Helvetica,sans-Serif" font-size="10.00">is_glsl_scalar&lt; T &gt;</text>
</a>
</g>
</g>
<!-- Node0&#45;&gt;Node20 -->
<g id="edge23_Node000000_Node000020" class="edge">
<title>Node0&#45;&gt;Node20</title>
<g id="a_edge23_Node000000_Node000020"><a xlink:title=" ">
<path fill="none" stroke="#63b8ff" d="M73.91,-875.44C90.11,-885.8 111.97,-899.05 132.25,-909 138.39,-912.01 144.98,-914.92 151.53,-917.62"/>
<polygon fill="#63b8ff" stroke="#63b8ff" points="76.18,-872.74 65.88,-870.24 72.37,-878.61 76.18,-872.74"/>
</a>
</g>
</g>
<!-- Node21 -->
<g id="Node000021" class="node">
<title>Node21</title>
<g id="a_Node000021"><a xlink:href="d4/d61/structglslstruct_1_1utils_1_1is__glsl__vec.html" target="_top" xlink:title="struct with bool_constant which is true if type can be converted to glsl vec type">
<polygon fill="white" stroke="#666666" points="241.62,-900 153.62,-900 153.62,-868 241.62,-868 241.62,-900"/>
<text xml:space="preserve" text-anchor="start" x="161.62" y="-886.5" font-family="Helvetica,sans-Serif" font-size="10.00">glslstruct::utils::</text>
<text xml:space="preserve" text-anchor="middle" x="197.62" y="-874.5" font-family="Helvetica,sans-Serif" font-size="10.00">is_glsl_vec&lt; T &gt;</text>
</a>
</g>
</g>
<!-- Node0&#45;&gt;Node21 -->
<g id="edge24_Node000000_Node000021" class="edge">
<title>Node0&#45;&gt;Node21</title>
<g id="a_edge24_Node000000_Node000021"><a xlink:title=" ">
<path fill="none" stroke="#63b8ff" d="M107.95,-868.97C123.07,-871.53 139.05,-874.24 153.23,-876.64"/>
<polygon fill="#63b8ff" stroke="#63b8ff" points="108.54,-865.52 98.1,-867.3 107.37,-872.42 108.54,-865.52"/>
</a>
</g>
</g>
<!-- Node22 -->
<g id="Node000022" class="node">
<title>Node22</title>
<g id="a_Node000022"><a xlink:href="da/d5e/structglslstruct_1_1utils_1_1is__hashable.html" target="_top" xlink:title="Checks if type has defined std::hash.">
<polygon fill="white" stroke="#666666" points="243.12,-850 152.12,-850 152.12,-818 243.12,-818 243.12,-850"/>
<text xml:space="preserve" text-anchor="start" x="160.12" y="-836.5" font-family="Helvetica,sans-Serif" font-size="10.00">glslstruct::utils::</text>
<text xml:space="preserve" text-anchor="middle" x="197.62" y="-824.5" font-family="Helvetica,sans-Serif" font-size="10.00">is_hashable&lt; T &gt;</text>
</a>
</g>
</g>
<!-- Node0&#45;&gt;Node22 -->
<g id="edge25_Node000000_Node000022" class="edge">
<title>Node0&#45;&gt;Node22</title>
<g id="a_edge25_Node000000_Node000022"><a xlink:title=" ">
<path fill="none" stroke="#63b8ff" d="M107.63,-849.08C122.31,-846.6 137.84,-843.96 151.74,-841.61"/>
<polygon fill="#63b8ff" stroke="#63b8ff" points="107.37,-845.58 98.1,-850.7 108.54,-852.48 107.37,-845.58"/>
</a>
</g>
</g>
<!-- Node5 -->
<g id="Node000005" class="node">
<title>Node5</title>
<g id="a_Node000005"><a xlink:title=" ">
<polygon fill="#e0e0e0" stroke="#999999" points="88.38,-336 7.88,-336 7.88,-316 88.38,-316 88.38,-336"/>
<text xml:space="preserve" text-anchor="middle" x="48.12" y="-322.5" font-family="Helvetica,sans-Serif" font-size="10.00">std::false_type</text>
</a>
</g>
</g>
<!-- Node5&#45;&gt;Node4 -->
<g id="edge28_Node000005_Node000004" class="edge">
<title>Node5&#45;&gt;Node4</title>
<g id="a_edge28_Node000005_Node000004"><a xlink:title=" ">
<path fill="none" stroke="#63b8ff" d="M63.3,-345.36C74.02,-360.96 88.22,-383.88 96.25,-406 129.62,-497.89 76.5,-542.69 132.25,-623 134.53,-626.28 137.2,-629.31 140.13,-632.1"/>
<polygon fill="#63b8ff" stroke="#63b8ff" points="66.36,-343.63 57.73,-337.48 60.64,-347.67 66.36,-343.63"/>
</a>
</g>
</g>
<!-- Node6 -->
<g id="Node000006" class="node">
<title>Node6</title>
<g id="a_Node000006"><a xlink:href="d5/dc6/structglslstruct_1_1utils_1_1is__array__of_3_01_test_00_01_t_00_01true_00_01_args_8_8_8_01_4.html" target="_top" xlink:title=" ">
<polygon fill="white" stroke="#666666" points="249.88,-614 145.38,-614 145.38,-570 249.88,-570 249.88,-614"/>
<text xml:space="preserve" text-anchor="start" x="153.38" y="-600.5" font-family="Helvetica,sans-Serif" font-size="10.00">glslstruct::utils::</text>
<text xml:space="preserve" text-anchor="start" x="153.38" y="-588.5" font-family="Helvetica,sans-Serif" font-size="10.00">is_array_of&lt; Test, T,</text>
<text xml:space="preserve" text-anchor="middle" x="197.62" y="-576.5" font-family="Helvetica,sans-Serif" font-size="10.00"> true, Args... &gt;</text>
</a>
</g>
</g>
<!-- Node5&#45;&gt;Node6 -->
<g id="edge26_Node000005_Node000006" class="edge">
<title>Node5&#45;&gt;Node6</title>
<g id="a_edge26_Node000005_Node000006"><a xlink:title=" ">
<path fill="none" stroke="#63b8ff" d="M62.91,-345.51C73.41,-361.19 87.51,-384.14 96.25,-406 122.5,-471.67 88.05,-505.79 132.25,-561 135.82,-565.45 140.18,-569.31 144.94,-572.64"/>
<polygon fill="#63b8ff" stroke="#63b8ff" points="66.02,-343.85 57.47,-337.58 60.24,-347.81 66.02,-343.85"/>
</a>
</g>
</g>
<!-- Node9 -->
<g id="Node000009" class="node">
<title>Node9</title>
<g id="a_Node000009"><a xlink:href="d9/da9/structglslstruct_1_1utils_1_1is__glsl__layout_3_01base__layout_3_01_t_01_4_01_4.html" target="_top" xlink:title=" ">
<polygon fill="white" stroke="#666666" points="250.25,-478 145,-478 145,-434 250.25,-434 250.25,-478"/>
<text xml:space="preserve" text-anchor="start" x="153" y="-464.5" font-family="Helvetica,sans-Serif" font-size="10.00">glslstruct::utils::</text>
<text xml:space="preserve" text-anchor="start" x="153" y="-452.5" font-family="Helvetica,sans-Serif" font-size="10.00">is_glsl_layout&lt; base</text>
<text xml:space="preserve" text-anchor="middle" x="197.62" y="-440.5" font-family="Helvetica,sans-Serif" font-size="10.00">_layout&lt; T &gt; &gt;</text>
</a>
</g>
</g>
<!-- Node5&#45;&gt;Node9 -->
<g id="edge27_Node000005_Node000009" class="edge">
<title>Node5&#45;&gt;Node9</title>
<g id="a_edge27_Node000005_Node000009"><a xlink:title=" ">
<path fill="none" stroke="#63b8ff" d="M61.85,-345.68C76.66,-367.36 102.86,-402.16 132.25,-425 136.17,-428.04 140.43,-430.89 144.84,-433.54"/>
<polygon fill="#63b8ff" stroke="#63b8ff" points="64.83,-343.85 56.38,-337.47 59.01,-347.73 64.83,-343.85"/>
</a>
</g>
</g>
<!-- Node11 -->
<g id="Node000011" class="node">
<title>Node11</title>
<g id="a_Node000011"><a xlink:href="d7/d04/structglslstruct_1_1utils_1_1is__glsl__struct_3_01base__struct_3_01_l_01_4_01_4.html" target="_top" xlink:title=" ">
<polygon fill="white" stroke="#666666" points="249.5,-416 145.75,-416 145.75,-372 249.5,-372 249.5,-416"/>
<text xml:space="preserve" text-anchor="start" x="153.75" y="-402.5" font-family="Helvetica,sans-Serif" font-size="10.00">glslstruct::utils::</text>
<text xml:space="preserve" text-anchor="start" x="153.75" y="-390.5" font-family="Helvetica,sans-Serif" font-size="10.00">is_glsl_struct&lt; base</text>
<text xml:space="preserve" text-anchor="middle" x="197.62" y="-378.5" font-family="Helvetica,sans-Serif" font-size="10.00">_struct&lt; L &gt; &gt;</text>
</a>
</g>
</g>
<!-- Node5&#45;&gt;Node11 -->
<g id="edge29_Node000005_Node000011" class="edge">
<title>Node5&#45;&gt;Node11</title>
<g id="a_edge29_Node000005_Node000011"><a xlink:title=" ">
<path fill="none" stroke="#63b8ff" d="M82.27,-341.28C101.61,-350.2 126.38,-361.62 147.91,-371.54"/>
<polygon fill="#63b8ff" stroke="#63b8ff" points="83.77,-338.12 73.22,-337.11 80.84,-344.47 83.77,-338.12"/>
</a>
</g>
</g>
<!-- Node12 -->
<g id="Node000012" class="node">
<title>Node12</title>
<g id="a_Node000012"><a xlink:href="de/d5d/structglslstruct_1_1utils_1_1is__static__size__array__of__impl.html" target="_top" xlink:title=" ">
<polygon fill="white" stroke="#666666" points="257.75,-354 137.5,-354 137.5,-298 257.75,-298 257.75,-354"/>
<text xml:space="preserve" text-anchor="start" x="145.5" y="-340.5" font-family="Helvetica,sans-Serif" font-size="10.00">glslstruct::utils::</text>
<text xml:space="preserve" text-anchor="start" x="145.5" y="-328.5" font-family="Helvetica,sans-Serif" font-size="10.00">is_static_size_array</text>
<text xml:space="preserve" text-anchor="start" x="145.5" y="-316.5" font-family="Helvetica,sans-Serif" font-size="10.00">_of_impl&lt; Test, T, is</text>
<text xml:space="preserve" text-anchor="middle" x="197.62" y="-304.5" font-family="Helvetica,sans-Serif" font-size="10.00">_array_v&lt; T &gt;, Args... &gt;</text>
</a>
</g>
</g>
<!-- Node5&#45;&gt;Node12 -->
<g id="edge30_Node000005_Node000012" class="edge">
<title>Node5&#45;&gt;Node12</title>
<g id="a_edge30_Node000005_Node000012"><a xlink:title=" ">
<path fill="none" stroke="#63b8ff" d="M99.88,-326C111.93,-326 124.89,-326 137.28,-326"/>
<polygon fill="#63b8ff" stroke="#63b8ff" points="100.17,-322.5 90.17,-326 100.17,-329.5 100.17,-322.5"/>
</a>
</g>
</g>
<!-- Node8 -->
<g id="Node000008" class="node">
<title>Node8</title>
<g id="a_Node000008"><a xlink:href="dc/d00/structglslstruct_1_1utils_1_1is__static__size__array__of__impl_3_01_test_00_01_t_00_01true_00_01_args_8_8_8_01_4.html" target="_top" xlink:title=" ">
<polygon fill="white" stroke="#666666" points="255.5,-552 139.75,-552 139.75,-496 255.5,-496 255.5,-552"/>
<text xml:space="preserve" text-anchor="start" x="147.75" y="-538.5" font-family="Helvetica,sans-Serif" font-size="10.00">glslstruct::utils::</text>
<text xml:space="preserve" text-anchor="start" x="147.75" y="-526.5" font-family="Helvetica,sans-Serif" font-size="10.00">is_static_size_array</text>
<text xml:space="preserve" text-anchor="start" x="147.75" y="-514.5" font-family="Helvetica,sans-Serif" font-size="10.00">_of_impl&lt; Test, T, true,</text>
<text xml:space="preserve" text-anchor="middle" x="197.62" y="-502.5" font-family="Helvetica,sans-Serif" font-size="10.00"> Args... &gt;</text>
</a>
</g>
</g>
<!-- Node5&#45;&gt;Node8 -->
<g id="edge32_Node000005_Node000008" class="edge">
<title>Node5&#45;&gt;Node8</title>
<g id="a_edge32_Node000005_Node000008"><a xlink:title=" ">
<path fill="none" stroke="#63b8ff" d="M61.62,-345.75C71.51,-361.73 85.42,-384.95 96.25,-406 114.28,-441.03 105.87,-457.74 132.25,-487 135.01,-490.06 138.09,-492.94 141.36,-495.63"/>
<polygon fill="#63b8ff" stroke="#63b8ff" points="64.84,-344.3 56.57,-337.68 58.9,-348.01 64.84,-344.3"/>
</a>
</g>
</g>
<!-- Node14 -->
<g id="Node000014" class="node">
<title>Node14</title>
<g id="a_Node000014"><a xlink:href="d6/da6/structglslstruct_1_1utils_1_1is__array__of.html" target="_top" xlink:title="helper struct for is_array_of_v check">
<polygon fill="white" stroke="#666666" points="249.88,-280 145.38,-280 145.38,-236 249.88,-236 249.88,-280"/>
<text xml:space="preserve" text-anchor="start" x="153.38" y="-266.5" font-family="Helvetica,sans-Serif" font-size="10.00">glslstruct::utils::</text>
<text xml:space="preserve" text-anchor="start" x="153.38" y="-254.5" font-family="Helvetica,sans-Serif" font-size="10.00">is_array_of&lt; Test, T,</text>
<text xml:space="preserve" text-anchor="middle" x="197.62" y="-242.5" font-family="Helvetica,sans-Serif" font-size="10.00"> IsArray, Args &gt;</text>
</a>
</g>
</g>
<!-- Node5&#45;&gt;Node14 -->
<g id="edge33_Node000005_Node000014" class="edge">
<title>Node5&#45;&gt;Node14</title>
<g id="a_edge33_Node000005_Node000014"><a xlink:title=" ">
<path fill="none" stroke="#63b8ff" d="M82.27,-310.72C101.61,-301.8 126.38,-290.38 147.91,-280.46"/>
<polygon fill="#63b8ff" stroke="#63b8ff" points="80.84,-307.53 73.22,-314.89 83.77,-313.88 80.84,-307.53"/>
</a>
</g>
</g>
<!-- Node15 -->
<g id="Node000015" class="node">
<title>Node15</title>
<g id="a_Node000015"><a xlink:href="db/d32/structglslstruct_1_1utils_1_1is__glsl__layout.html" target="_top" xlink:title="helper struct to check if type is glsl layout">
<polygon fill="white" stroke="#666666" points="246.88,-218 148.38,-218 148.38,-186 246.88,-186 246.88,-218"/>
<text xml:space="preserve" text-anchor="start" x="156.38" y="-204.5" font-family="Helvetica,sans-Serif" font-size="10.00">glslstruct::utils::</text>
<text xml:space="preserve" text-anchor="middle" x="197.62" y="-192.5" font-family="Helvetica,sans-Serif" font-size="10.00">is_glsl_layout&lt; T &gt;</text>
</a>
</g>
</g>
<!-- Node5&#45;&gt;Node15 -->
<g id="edge34_Node000005_Node000015" class="edge">
<title>Node5&#45;&gt;Node15</title>
<g id="a_edge34_Node000005_Node000015"><a xlink:title=" ">
<path fill="none" stroke="#63b8ff" d="M61.53,-305.88C76.04,-283.82 101.98,-248.67 132.25,-227 137.12,-223.51 142.55,-220.43 148.13,-217.73"/>
<polygon fill="#63b8ff" stroke="#63b8ff" points="58.6,-303.96 56.17,-314.27 64.5,-307.73 58.6,-303.96"/>
</a>
</g>
</g>
<!-- Node16 -->
<g id="Node000016" class="node">
<title>Node16</title>
<g id="a_Node000016"><a xlink:href="d6/dc6/structglslstruct_1_1utils_1_1is__glsl__layout__struct.html" target="_top" xlink:title="helper struct to check if type is glsl struct with required layout">
<polygon fill="white" stroke="#666666" points="250.25,-168 145,-168 145,-124 250.25,-124 250.25,-168"/>
<text xml:space="preserve" text-anchor="start" x="153" y="-154.5" font-family="Helvetica,sans-Serif" font-size="10.00">glslstruct::utils::</text>
<text xml:space="preserve" text-anchor="start" x="153" y="-142.5" font-family="Helvetica,sans-Serif" font-size="10.00">is_glsl_layout_struct</text>
<text xml:space="preserve" text-anchor="middle" x="197.62" y="-130.5" font-family="Helvetica,sans-Serif" font-size="10.00">&lt; S, Layout &gt;</text>
</a>
</g>
</g>
<!-- Node5&#45;&gt;Node16 -->
<g id="edge35_Node000005_Node000016" class="edge">
<title>Node5&#45;&gt;Node16</title>
<g id="a_edge35_Node000005_Node000016"><a xlink:title=" ">
<path fill="none" stroke="#63b8ff" d="M56.15,-305C67.61,-273.53 93.05,-213.91 132.25,-177 135.95,-173.51 140.12,-170.35 144.51,-167.49"/>
<polygon fill="#63b8ff" stroke="#63b8ff" points="52.95,-303.55 52.94,-314.14 59.55,-305.86 52.95,-303.55"/>
</a>
</g>
</g>
<!-- Node17 -->
<g id="Node000017" class="node">
<title>Node17</title>
<g id="a_Node000017"><a xlink:href="d1/df2/structglslstruct_1_1utils_1_1is__glsl__struct.html" target="_top" xlink:title="helper struct to check if type is glsl struct">
<polygon fill="white" stroke="#666666" points="246.88,-106 148.38,-106 148.38,-74 246.88,-74 246.88,-106"/>
<text xml:space="preserve" text-anchor="start" x="156.38" y="-92.5" font-family="Helvetica,sans-Serif" font-size="10.00">glslstruct::utils::</text>
<text xml:space="preserve" text-anchor="middle" x="197.62" y="-80.5" font-family="Helvetica,sans-Serif" font-size="10.00">is_glsl_struct&lt; S &gt;</text>
</a>
</g>
</g>
<!-- Node5&#45;&gt;Node17 -->
<g id="edge36_Node000005_Node000017" class="edge">
<title>Node5&#45;&gt;Node17</title>
<g id="a_edge36_Node000005_Node000017"><a xlink:title=" ">
<path fill="none" stroke="#63b8ff" d="M51.87,-304.31C58.3,-262.21 78.13,-168.86 132.25,-115 136.75,-110.52 142.15,-106.82 147.88,-103.77"/>
<polygon fill="#63b8ff" stroke="#63b8ff" points="48.42,-303.74 50.49,-314.13 55.35,-304.71 48.42,-303.74"/>
</a>
</g>
</g>
<!-- Node18 -->
<g id="Node000018" class="node">
<title>Node18</title>
<g id="a_Node000018"><a xlink:href="de/d5d/structglslstruct_1_1utils_1_1is__static__size__array__of__impl.html" target="_top" xlink:title="helper struct for is_static_size_array_of_v check">
<polygon fill="white" stroke="#666666" points="262.62,-56 132.62,-56 132.62,0 262.62,0 262.62,-56"/>
<text xml:space="preserve" text-anchor="start" x="140.62" y="-42.5" font-family="Helvetica,sans-Serif" font-size="10.00">glslstruct::utils::</text>
<text xml:space="preserve" text-anchor="start" x="140.62" y="-30.5" font-family="Helvetica,sans-Serif" font-size="10.00">is_static_size_array</text>
<text xml:space="preserve" text-anchor="start" x="140.62" y="-18.5" font-family="Helvetica,sans-Serif" font-size="10.00">_of_impl&lt; Test, T, IsArray,</text>
<text xml:space="preserve" text-anchor="middle" x="197.62" y="-6.5" font-family="Helvetica,sans-Serif" font-size="10.00"> Args &gt;</text>
</a>
</g>
</g>
<!-- Node5&#45;&gt;Node18 -->
<g id="edge37_Node000005_Node000018" class="edge">
<title>Node5&#45;&gt;Node18</title>
<g id="a_edge37_Node000005_Node000018"><a xlink:title=" ">
<path fill="none" stroke="#63b8ff" d="M50.8,-304.07C55.52,-255.79 72.77,-138.75 132.25,-65 134.76,-61.89 137.6,-58.99 140.67,-56.3"/>
<polygon fill="#63b8ff" stroke="#63b8ff" points="47.31,-303.75 49.93,-314.02 54.29,-304.37 47.31,-303.75"/>
</a>
</g>
</g>
<!-- Node13 -->
<g id="Node000013" class="node">
<title>Node13</title>
<g id="a_Node000013"><a xlink:href="d0/d9f/structglslstruct_1_1utils_1_1is__static__size__array__of.html" target="_top" xlink:title="checks if value type is array of type and if type passes given test template struct">
<polygon fill="white" stroke="#666666" points="402,-348 299,-348 299,-304 402,-304 402,-348"/>
<text xml:space="preserve" text-anchor="start" x="307" y="-334.5" font-family="Helvetica,sans-Serif" font-size="10.00">glslstruct::utils::</text>
<text xml:space="preserve" text-anchor="start" x="307" y="-322.5" font-family="Helvetica,sans-Serif" font-size="10.00">is_static_size_array</text>
<text xml:space="preserve" text-anchor="middle" x="350.5" y="-310.5" font-family="Helvetica,sans-Serif" font-size="10.00">_of&lt; Test, T, Args &gt;</text>
</a>
</g>
</g>
<!-- Node12&#45;&gt;Node13 -->
<g id="edge31_Node000012_Node000013" class="edge">
<title>Node12&#45;&gt;Node13</title>
<g id="a_edge31_Node000012_Node000013"><a xlink:title=" ">
<path fill="none" stroke="#63b8ff" d="M269.05,-326C279.08,-326 289.23,-326 298.78,-326"/>
<polygon fill="#63b8ff" stroke="#63b8ff" points="269.34,-322.5 259.34,-326 269.34,-329.5 269.34,-322.5"/>
</a>
</g>
</g>
<!-- Node7 -->
<g id="Node000007" class="node">
<title>Node7</title>
<g id="a_Node000007"><a xlink:href="d1/d9b/class_test.html" target="_top" xlink:title=" ">
<polygon fill="white" stroke="#666666" points="65.5,-568 30.75,-568 30.75,-548 65.5,-548 65.5,-568"/>
<text xml:space="preserve" text-anchor="middle" x="48.12" y="-554.5" font-family="Helvetica,sans-Serif" font-size="10.00">Test</text>
</a>
</g>
</g>
<!-- Node7&#45;&gt;Node6 -->
<g id="edge38_Node000007_Node000006" class="edge">
<title>Node7&#45;&gt;Node6</title>
<g id="a_edge38_Node000007_Node000006"><a xlink:title=" ">
<path fill="none" stroke="#63b8ff" d="M76.71,-564.36C95.88,-568.78 122.02,-574.8 145,-580.1"/>
<polygon fill="#63b8ff" stroke="#63b8ff" points="77.76,-561.01 67.23,-562.17 76.19,-567.83 77.76,-561.01"/>
</a>
</g>
</g>
<!-- Node7&#45;&gt;Node8 -->
<g id="edge39_Node000007_Node000008" class="edge">
<title>Node7&#45;&gt;Node8</title>
<g id="a_edge39_Node000007_Node000008"><a xlink:title=" ">
<path fill="none" stroke="#63b8ff" d="M76.92,-551.59C94.52,-547.54 117.93,-542.14 139.37,-537.2"/>
<polygon fill="#63b8ff" stroke="#63b8ff" points="76.19,-548.17 67.23,-553.83 77.76,-554.99 76.19,-548.17"/>
</a>
</g>
</g>
<!-- Node10 -->
<g id="Node000010" class="node">
<title>Node10</title>
<g id="a_Node000010"><a xlink:title=" ">
<polygon fill="#e0e0e0" stroke="#999999" points="86.12,-435 10.12,-435 10.12,-415 86.12,-415 86.12,-435"/>
<text xml:space="preserve" text-anchor="middle" x="48.12" y="-421.5" font-family="Helvetica,sans-Serif" font-size="10.00">std::true_type</text>
</a>
</g>
</g>
<!-- Node10&#45;&gt;Node9 -->
<g id="edge40_Node000010_Node000009" class="edge">
<title>Node10&#45;&gt;Node9</title>
<g id="a_edge40_Node000010_Node000009"><a xlink:title=" ">
<path fill="none" stroke="#63b8ff" d="M97.52,-435.17C112.62,-438.34 129.33,-441.86 144.65,-445.08"/>
<polygon fill="#63b8ff" stroke="#63b8ff" points="98.33,-431.77 87.83,-433.13 96.89,-438.62 98.33,-431.77"/>
</a>
</g>
</g>
<!-- Node10&#45;&gt;Node11 -->
<g id="edge41_Node000010_Node000011" class="edge">
<title>Node10&#45;&gt;Node11</title>
<g id="a_edge41_Node000010_Node000011"><a xlink:title=" ">
<path fill="none" stroke="#63b8ff" d="M97.24,-414.89C112.68,-411.64 129.84,-408.04 145.49,-404.75"/>
<polygon fill="#63b8ff" stroke="#63b8ff" points="96.89,-411.38 87.83,-416.87 98.33,-418.23 96.89,-411.38"/>
</a>
</g>
</g>
</g>
</svg>
