<?xml version="1.0" encoding="UTF-8" standalone="no"?>
<!DOCTYPE svg PUBLIC "-//W3C//DTD SVG 1.1//EN"
 "http://www.w3.org/Graphics/SVG/1.1/DTD/svg11.dtd">
<!-- Generated by graphviz version 14.1.1 (20251213.1925)
 -->
<!-- Title: Graphical Class Hierarchy Pages: 1 -->
<svg width="410pt" height="1208pt"
 viewBox="0.00 0.00 410.00 1208.00" xmlns="http://www.w3.org/2000/svg" xmlns:xlink="http://www.w3.org/1999/xlink">
<g id="graph0" class="graph" transform="scale(1 1) rotate(0) translate(4 1204)">
<title>Graphical Class Hierarchy</title>
<!-- Node0 -->
<g id="Node000000" class="node">
<title>Node0</title>
<g id="a_Node000000"><a xlink:title=" ">
<polygon fill="#e0e0e0" stroke="#999999" points="96.25,-932 0,-932 0,-912 96.25,-912 96.25,-932"/>
<text xml:space="preserve" text-anchor="middle" x="48.12" y="-918.5" font-family="Helvetica,sans-Serif" font-size="10.00">std::bool_constant</text>
</a>
</g>
</g>
<!-- Node1 -->
<g id="Node000001" class="node">
<title>Node1</title>
<g id="a_Node000001"><a xlink:href="d1/d2f/structglslstruct_1_1base__struct_1_1is__glsl__simple__or__layout__struct.html" target="_top" xlink:title="check if type is simple glsl type or struct with given layout">
<polygon fill="white" stroke="#666666" points="263,-1050 132.25,-1050 132.25,-1006 263,-1006 263,-1050"/>
<text xml:space="preserve" text-anchor="start" x="140.25" y="-1036.5" font-family="Helvetica,sans-Serif" font-size="10.00">glslstruct::base_struct</text>
<text xml:space="preserve" text-anchor="start" x="140.25" y="-1024.5" font-family="Helvetica,sans-Serif" font-size="10.00">&lt; Layout &gt;::is_glsl_simple</text>
<text xml:space="preserve" text-anchor="middle" x="197.62" y="-1012.5" font-family="Helvetica,sans-Serif" font-size="10.00">_or_layout_struct&lt; T &gt;</text>
</a>
</g>
</g>
<!-- Node0&#45;&gt;Node1 -->
<g id="edge18_Node000000_Node000001" class="edge">
<title>Node0&#45;&gt;Node1</title>
<g id="a_edge18_Node000000_Node000001"><a xlink:title=" ">
<path fill="none" stroke="#63b8ff" d="M66.76,-940.69C82.78,-956.95 107.61,-980.45 132.25,-997 136.68,-999.97 141.43,-1002.82 146.28,-1005.51"/>
<polygon fill="#63b8ff" stroke="#63b8ff" points="69.35,-938.33 59.88,-933.58 64.32,-943.2 69.35,-938.33"/>
</a>
</g>
</g>
<!-- Node2 -->
<g id="Node000002" class="node">
<title>Node2</title>
<g id="a_Node000002"><a xlink:href="d3/d07/structglslstruct_1_1is__glsl__base__type.html" target="_top" xlink:title="check if T is base_type container">
<polygon fill="white" stroke="#666666" points="242.38,-988 152.88,-988 152.88,-956 242.38,-956 242.38,-988"/>
<text xml:space="preserve" text-anchor="start" x="160.88" y="-974.5" font-family="Helvetica,sans-Serif" font-size="10.00">glslstruct::is_glsl</text>
<text xml:space="preserve" text-anchor="middle" x="197.62" y="-962.5" font-family="Helvetica,sans-Serif" font-size="10.00">_base_type&lt; T &gt;</text>
</a>
</g>
</g>
<!-- Node0&#45;&gt;Node2 -->
<g id="edge19_Node000000_Node000002" class="edge">
<title>Node0&#45;&gt;Node2</title>
<g id="a_edge19_Node000000_Node000002"><a xlink:title=" ">
<path fill="none" stroke="#63b8ff" d="M90.92,-936.17C110.19,-942.7 133.06,-950.45 152.6,-957.07"/>
<polygon fill="#63b8ff" stroke="#63b8ff" points="92.07,-932.86 81.48,-932.97 89.83,-939.49 92.07,-932.86"/>
</a>
</g>
</g>
<!-- Node3 -->
<g id="Node000003" class="node">
<title>Node3</title>
<g id="a_Node000003"><a xlink:href="d4/d14/structglslstruct_1_1is__glsl__mat.html" target="_top" xlink:title="struct with bool_constant which is true if type can be converted to glsl mat type">
<polygon fill="white" stroke="#666666" points="242.38,-938 152.88,-938 152.88,-906 242.38,-906 242.38,-938"/>
<text xml:space="preserve" text-anchor="start" x="160.88" y="-924.5" font-family="Helvetica,sans-Serif" font-size="10.00">glslstruct::is_glsl</text>
<text xml:space="preserve" text-anchor="middle" x="197.62" y="-912.5" font-family="Helvetica,sans-Serif" font-size="10.00">_mat&lt; T &gt;</text>
</a>
</g>
</g>
<!-- Node0&#45;&gt;Node3 -->
<g id="edge20_Node000000_Node000003" class="edge">
<title>Node0&#45;&gt;Node3</title>
<g id="a_edge20_Node000000_Node000003"><a xlink:title=" ">
<path fill="none" stroke="#63b8ff" d="M107.84,-922C122.82,-922 138.65,-922 152.74,-922"/>
<polygon fill="#63b8ff" stroke="#63b8ff" points="108.12,-918.5 98.12,-922 108.12,-925.5 108.12,-918.5"/>
</a>
</g>
</g>
<!-- Node4 -->
<g id="Node000004" class="node">
<title>Node4</title>
<g id="a_Node000004"><a xlink:href="d7/db3/structglslstruct_1_1is__glsl__scalar.html" target="_top" xlink:title="struct with bool_constant which is true if type can be converted to glsl scalar type">
<polygon fill="white" stroke="#666666" points="242.38,-888 152.88,-888 152.88,-856 242.38,-856 242.38,-888"/>
<text xml:space="preserve" text-anchor="start" x="160.88" y="-874.5" font-family="Helvetica,sans-Serif" font-size="10.00">glslstruct::is_glsl</text>
<text xml:space="preserve" text-anchor="middle" x="197.62" y="-862.5" font-family="Helvetica,sans-Serif" font-size="10.00">_scalar&lt; T &gt;</text>
</a>
</g>
</g>
<!-- Node0&#45;&gt;Node4 -->
<g id="edge21_Node000000_Node000004" class="edge">
<title>Node0&#45;&gt;Node4</title>
<g id="a_edge21_Node000000_Node000004"><a xlink:title=" ">
<path fill="none" stroke="#63b8ff" d="M90.92,-907.83C110.19,-901.3 133.06,-893.55 152.6,-886.93"/>
<polygon fill="#63b8ff" stroke="#63b8ff" points="89.83,-904.51 81.48,-911.03 92.07,-911.14 89.83,-904.51"/>
</a>
</g>
</g>
<!-- Node5 -->
<g id="Node000005" class="node">
<title>Node5</title>
<g id="a_Node000005"><a xlink:href="d6/d7e/structglslstruct_1_1is__glsl__simple.html" target="_top" xlink:title="check if type is glsl simple (is of scalar or vec or mat type)">
<polygon fill="white" stroke="#666666" points="242.38,-838 152.88,-838 152.88,-806 242.38,-806 242.38,-838"/>
<text xml:space="preserve" text-anchor="start" x="160.88" y="-824.5" font-family="Helvetica,sans-Serif" font-size="10.00">glslstruct::is_glsl</text>
<text xml:space="preserve" text-anchor="middle" x="197.62" y="-812.5" font-family="Helvetica,sans-Serif" font-size="10.00">_simple&lt; T &gt;</text>
</a>
</g>
</g>
<!-- Node0&#45;&gt;Node5 -->
<g id="edge22_Node000000_Node000005" class="edge">
<title>Node0&#45;&gt;Node5</title>
<g id="a_edge22_Node000000_Node000005"><a xlink:title=" ">
<path fill="none" stroke="#63b8ff" d="M65.94,-903.38C81.73,-886.78 106.7,-862.74 132.25,-847 138.58,-843.1 145.62,-839.62 152.65,-836.59"/>
<polygon fill="#63b8ff" stroke="#63b8ff" points="63.44,-900.92 59.19,-910.63 68.57,-905.69 63.44,-900.92"/>
</a>
</g>
</g>
<!-- Node6 -->
<g id="Node000006" class="node">
<title>Node6</title>
<g id="a_Node000006"><a xlink:href="d9/d07/structglslstruct_1_1is__glsl__type.html" target="_top" xlink:title="check if T is glsl type (not base_type container but derived from base_type container)">
<polygon fill="white" stroke="#666666" points="242.38,-788 152.88,-788 152.88,-756 242.38,-756 242.38,-788"/>
<text xml:space="preserve" text-anchor="start" x="160.88" y="-774.5" font-family="Helvetica,sans-Serif" font-size="10.00">glslstruct::is_glsl</text>
<text xml:space="preserve" text-anchor="middle" x="197.62" y="-762.5" font-family="Helvetica,sans-Serif" font-size="10.00">_type&lt; T &gt;</text>
</a>
</g>
</g>
<!-- Node0&#45;&gt;Node6 -->
<g id="edge23_Node000000_Node000006" class="edge">
<title>Node0&#45;&gt;Node6</title>
<g id="a_edge23_Node000000_Node000006"><a xlink:title=" ">
<path fill="none" stroke="#63b8ff" d="M57.96,-901.37C70.66,-873.98 96.53,-825.72 132.25,-797 138.23,-792.19 145.24,-788.23 152.4,-784.98"/>
<polygon fill="#63b8ff" stroke="#63b8ff" points="54.84,-899.78 53.95,-910.33 61.23,-902.63 54.84,-899.78"/>
</a>
</g>
</g>
<!-- Node7 -->
<g id="Node000007" class="node">
<title>Node7</title>
<g id="a_Node000007"><a xlink:href="d3/d49/structglslstruct_1_1is__glsl__vec.html" target="_top" xlink:title="struct with bool_constant which is true if type can be converted to glsl vec type">
<polygon fill="white" stroke="#666666" points="242.38,-738 152.88,-738 152.88,-706 242.38,-706 242.38,-738"/>
<text xml:space="preserve" text-anchor="start" x="160.88" y="-724.5" font-family="Helvetica,sans-Serif" font-size="10.00">glslstruct::is_glsl</text>
<text xml:space="preserve" text-anchor="middle" x="197.62" y="-712.5" font-family="Helvetica,sans-Serif" font-size="10.00">_vec&lt; T &gt;</text>
</a>
</g>
</g>
<!-- Node0&#45;&gt;Node7 -->
<g id="edge24_Node000000_Node000007" class="edge">
<title>Node0&#45;&gt;Node7</title>
<g id="a_edge24_Node000000_Node000007"><a xlink:title=" ">
<path fill="none" stroke="#63b8ff" d="M53.82,-900.54C62.85,-864.13 85.97,-790.02 132.25,-747 138.05,-741.61 145.13,-737.34 152.46,-733.97"/>
<polygon fill="#63b8ff" stroke="#63b8ff" points="50.42,-899.73 51.55,-910.26 57.23,-901.33 50.42,-899.73"/>
</a>
</g>
</g>
<!-- Node8 -->
<g id="Node000008" class="node">
<title>Node8</title>
<g id="a_Node000008"><a xlink:href="d4/d54/structglslstruct_1_1is__layout__traits.html" target="_top" xlink:title="Type trait to check if T is a valid layout trait.">
<polygon fill="white" stroke="#666666" points="248,-1200 147.25,-1200 147.25,-1168 248,-1168 248,-1200"/>
<text xml:space="preserve" text-anchor="start" x="155.25" y="-1186.5" font-family="Helvetica,sans-Serif" font-size="10.00">glslstruct::is_layout</text>
<text xml:space="preserve" text-anchor="middle" x="197.62" y="-1174.5" font-family="Helvetica,sans-Serif" font-size="10.00">_traits&lt; T &gt;</text>
</a>
</g>
</g>
<!-- Node0&#45;&gt;Node8 -->
<g id="edge25_Node000000_Node000008" class="edge">
<title>Node0&#45;&gt;Node8</title>
<g id="a_edge25_Node000000_Node000008"><a xlink:title=" ">
<path fill="none" stroke="#63b8ff" d="M50.75,-943.48C55.34,-989.19 72.24,-1096.97 132.25,-1159 136.42,-1163.31 141.41,-1166.89 146.75,-1169.86"/>
<polygon fill="#63b8ff" stroke="#63b8ff" points="54.25,-943.25 49.88,-933.6 47.27,-943.87 54.25,-943.25"/>
</a>
</g>
</g>
<!-- Node9 -->
<g id="Node000009" class="node">
<title>Node9</title>
<g id="a_Node000009"><a xlink:href="dc/def/structglslstruct_1_1is__type__visitor.html" target="_top" xlink:title="struct with bool_constant which is true if type T is type visitor">
<polygon fill="white" stroke="#666666" points="244.25,-1150 151,-1150 151,-1118 244.25,-1118 244.25,-1150"/>
<text xml:space="preserve" text-anchor="start" x="159" y="-1136.5" font-family="Helvetica,sans-Serif" font-size="10.00">glslstruct::is_type</text>
<text xml:space="preserve" text-anchor="middle" x="197.62" y="-1124.5" font-family="Helvetica,sans-Serif" font-size="10.00">_visitor&lt; T &gt;</text>
</a>
</g>
</g>
<!-- Node0&#45;&gt;Node9 -->
<g id="edge26_Node000000_Node000009" class="edge">
<title>Node0&#45;&gt;Node9</title>
<g id="a_edge26_Node000000_Node000009"><a xlink:title=" ">
<path fill="none" stroke="#63b8ff" d="M53.05,-943.31C61.16,-981.58 83.27,-1062.31 132.25,-1109 137.54,-1114.05 143.97,-1118.11 150.69,-1121.37"/>
<polygon fill="#63b8ff" stroke="#63b8ff" points="56.49,-942.68 51.11,-933.55 49.63,-944.04 56.49,-942.68"/>
</a>
</g>
</g>
<!-- Node10 -->
<g id="Node000010" class="node">
<title>Node10</title>
<g id="a_Node000010"><a xlink:href="d2/dfc/structglslstruct_1_1utils_1_1is__glsl__layout__struct_3_01base__struct_3_01_layout_01_4_00_01_l_01_4.html" target="_top" xlink:title=" ">
<polygon fill="white" stroke="#666666" points="254.75,-688 140.5,-688 140.5,-632 254.75,-632 254.75,-688"/>
<text xml:space="preserve" text-anchor="start" x="148.5" y="-674.5" font-family="Helvetica,sans-Serif" font-size="10.00">glslstruct::utils::</text>
<text xml:space="preserve" text-anchor="start" x="148.5" y="-662.5" font-family="Helvetica,sans-Serif" font-size="10.00">is_glsl_layout_struct</text>
<text xml:space="preserve" text-anchor="start" x="148.5" y="-650.5" font-family="Helvetica,sans-Serif" font-size="10.00">&lt; base_struct&lt; Layout</text>
<text xml:space="preserve" text-anchor="middle" x="197.62" y="-638.5" font-family="Helvetica,sans-Serif" font-size="10.00"> &gt;, L &gt;</text>
</a>
</g>
</g>
<!-- Node0&#45;&gt;Node10 -->
<g id="edge27_Node000000_Node000010" class="edge">
<title>Node0&#45;&gt;Node10</title>
<g id="a_edge27_Node000000_Node000010"><a xlink:title=" ">
<path fill="none" stroke="#63b8ff" d="M52.08,-900.5C58.99,-857.37 79.77,-759.11 132.25,-697 134.83,-693.95 137.73,-691.09 140.83,-688.43"/>
<polygon fill="#63b8ff" stroke="#63b8ff" points="48.63,-899.89 50.62,-910.3 55.56,-900.93 48.63,-899.89"/>
</a>
</g>
</g>
<!-- Node25 -->
<g id="Node000025" class="node">
<title>Node25</title>
<g id="a_Node000025"><a xlink:href="da/d5e/structglslstruct_1_1utils_1_1is__hashable.html" target="_top" xlink:title="Checks if type has defined std::hash.">
<polygon fill="white" stroke="#666666" points="243.12,-1100 152.12,-1100 152.12,-1068 243.12,-1068 243.12,-1100"/>
<text xml:space="preserve" text-anchor="start" x="160.12" y="-1086.5" font-family="Helvetica,sans-Serif" font-size="10.00">glslstruct::utils::</text>
<text xml:space="preserve" text-anchor="middle" x="197.62" y="-1074.5" font-family="Helvetica,sans-Serif" font-size="10.00">is_hashable&lt; T &gt;</text>
</a>
</g>
</g>
<!-- Node0&#45;&gt;Node25 -->
<g id="edge28_Node000000_Node000025" class="edge">
<title>Node0&#45;&gt;Node25</title>
<g id="a_edge28_Node000000_Node000025"><a xlink:title=" ">
<path fill="none" stroke="#63b8ff" d="M56.75,-942.89C68.57,-972.59 94.03,-1026.94 132.25,-1059 138.04,-1063.85 144.87,-1067.83 151.9,-1071.07"/>
<polygon fill="#63b8ff" stroke="#63b8ff" points="60.02,-941.65 53.18,-933.56 53.48,-944.15 60.02,-941.65"/>
</a>
</g>
</g>
<!-- Node11 -->
<g id="Node000011" class="node">
<title>Node11</title>
<g id="a_Node000011"><a xlink:title=" ">
<polygon fill="#e0e0e0" stroke="#999999" points="88.38,-348 7.88,-348 7.88,-328 88.38,-328 88.38,-348"/>
<text xml:space="preserve" text-anchor="middle" x="48.12" y="-334.5" font-family="Helvetica,sans-Serif" font-size="10.00">std::false_type</text>
</a>
</g>
</g>
<!-- Node11&#45;&gt;Node10 -->
<g id="edge32_Node000011_Node000010" class="edge">
<title>Node11&#45;&gt;Node10</title>
<g id="a_edge32_Node000011_Node000010"><a xlink:title=" ">
<path fill="none" stroke="#63b8ff" d="M53.26,-359.67C64.88,-418.71 99.08,-580.82 132.25,-623 134.64,-626.04 137.36,-628.88 140.28,-631.51"/>
<polygon fill="#63b8ff" stroke="#63b8ff" points="56.71,-359.06 51.37,-349.91 49.84,-360.39 56.71,-359.06"/>
</a>
</g>
</g>
<!-- Node12 -->
<g id="Node000012" class="node">
<title>Node12</title>
<g id="a_Node000012"><a xlink:href="d5/d36/structglslstruct_1_1is__glsl__layout_3_01base__layout_3_01_t_01_4_01_4.html" target="_top" xlink:title=" ">
<polygon fill="white" stroke="#666666" points="252.12,-552 143.12,-552 143.12,-508 252.12,-508 252.12,-552"/>
<text xml:space="preserve" text-anchor="start" x="151.12" y="-538.5" font-family="Helvetica,sans-Serif" font-size="10.00">glslstruct::is_glsl</text>
<text xml:space="preserve" text-anchor="start" x="151.12" y="-526.5" font-family="Helvetica,sans-Serif" font-size="10.00">_layout&lt; base_layout</text>
<text xml:space="preserve" text-anchor="middle" x="197.62" y="-514.5" font-family="Helvetica,sans-Serif" font-size="10.00">&lt; T &gt; &gt;</text>
</a>
</g>
</g>
<!-- Node11&#45;&gt;Node12 -->
<g id="edge29_Node000011_Node000012" class="edge">
<title>Node11&#45;&gt;Node12</title>
<g id="a_edge29_Node000011_Node000012"><a xlink:title=" ">
<path fill="none" stroke="#63b8ff" d="M55.24,-359.27C65.87,-392.87 90.68,-458.57 132.25,-499 135.45,-502.11 139.03,-504.96 142.8,-507.56"/>
<polygon fill="#63b8ff" stroke="#63b8ff" points="58.65,-358.45 52.4,-349.9 51.95,-360.48 58.65,-358.45"/>
</a>
</g>
</g>
<!-- Node14 -->
<g id="Node000014" class="node">
<title>Node14</title>
<g id="a_Node000014"><a xlink:href="d6/d82/structglslstruct_1_1is__glsl__struct_3_01base__struct_3_01_l_01_4_01_4.html" target="_top" xlink:title=" ">
<polygon fill="white" stroke="#666666" points="250.62,-614 144.62,-614 144.62,-570 250.62,-570 250.62,-614"/>
<text xml:space="preserve" text-anchor="start" x="152.62" y="-600.5" font-family="Helvetica,sans-Serif" font-size="10.00">glslstruct::is_glsl</text>
<text xml:space="preserve" text-anchor="start" x="152.62" y="-588.5" font-family="Helvetica,sans-Serif" font-size="10.00">_struct&lt; base_struct</text>
<text xml:space="preserve" text-anchor="middle" x="197.62" y="-576.5" font-family="Helvetica,sans-Serif" font-size="10.00">&lt; L &gt; &gt;</text>
</a>
</g>
</g>
<!-- Node11&#45;&gt;Node14 -->
<g id="edge30_Node000011_Node000014" class="edge">
<title>Node11&#45;&gt;Node14</title>
<g id="a_edge30_Node000011_Node000014"><a xlink:title=" ">
<path fill="none" stroke="#63b8ff" d="M51.76,-359.63C58.09,-402.98 77.88,-501.39 132.25,-561 135.76,-564.85 139.85,-568.27 144.24,-571.3"/>
<polygon fill="#63b8ff" stroke="#63b8ff" points="55.24,-359.22 50.43,-349.78 48.3,-360.15 55.24,-359.22"/>
</a>
</g>
</g>
<!-- Node15 -->
<g id="Node000015" class="node">
<title>Node15</title>
<g id="a_Node000015"><a xlink:href="d5/dc6/structglslstruct_1_1utils_1_1is__array__of_3_01_test_00_01_t_00_01true_00_01_args_8_8_8_01_4.html" target="_top" xlink:title=" ">
<polygon fill="white" stroke="#666666" points="249.88,-44 145.38,-44 145.38,0 249.88,0 249.88,-44"/>
<text xml:space="preserve" text-anchor="start" x="153.38" y="-30.5" font-family="Helvetica,sans-Serif" font-size="10.00">glslstruct::utils::</text>
<text xml:space="preserve" text-anchor="start" x="153.38" y="-18.5" font-family="Helvetica,sans-Serif" font-size="10.00">is_array_of&lt; Test, T,</text>
<text xml:space="preserve" text-anchor="middle" x="197.62" y="-6.5" font-family="Helvetica,sans-Serif" font-size="10.00"> true, Args... &gt;</text>
</a>
</g>
</g>
<!-- Node11&#45;&gt;Node15 -->
<g id="edge31_Node000011_Node000015" class="edge">
<title>Node11&#45;&gt;Node15</title>
<g id="a_edge31_Node000011_Node000015"><a xlink:title=" ">
<path fill="none" stroke="#63b8ff" d="M49.66,-316.18C52.06,-264.42 64.83,-132.57 132.25,-53 135.94,-48.65 140.38,-44.86 145.18,-41.57"/>
<polygon fill="#63b8ff" stroke="#63b8ff" points="46.17,-315.9 49.31,-326.02 53.17,-316.16 46.17,-315.9"/>
</a>
</g>
</g>
<!-- Node18 -->
<g id="Node000018" class="node">
<title>Node18</title>
<g id="a_Node000018"><a xlink:href="de/d5d/structglslstruct_1_1utils_1_1is__static__size__array__of__impl.html" target="_top" xlink:title=" ">
<polygon fill="white" stroke="#666666" points="257.75,-292 137.5,-292 137.5,-236 257.75,-236 257.75,-292"/>
<text xml:space="preserve" text-anchor="start" x="145.5" y="-278.5" font-family="Helvetica,sans-Serif" font-size="10.00">glslstruct::utils::</text>
<text xml:space="preserve" text-anchor="start" x="145.5" y="-266.5" font-family="Helvetica,sans-Serif" font-size="10.00">is_static_size_array</text>
<text xml:space="preserve" text-anchor="start" x="145.5" y="-254.5" font-family="Helvetica,sans-Serif" font-size="10.00">_of_impl&lt; Test, T, is</text>
<text xml:space="preserve" text-anchor="middle" x="197.62" y="-242.5" font-family="Helvetica,sans-Serif" font-size="10.00">_array_v&lt; T &gt;, Args... &gt;</text>
</a>
</g>
</g>
<!-- Node11&#45;&gt;Node18 -->
<g id="edge33_Node000011_Node000018" class="edge">
<title>Node11&#45;&gt;Node18</title>
<g id="a_edge33_Node000011_Node000018"><a xlink:title=" ">
<path fill="none" stroke="#63b8ff" d="M80.07,-322.48C97.42,-313.77 119.61,-302.64 139.97,-292.42"/>
<polygon fill="#63b8ff" stroke="#63b8ff" points="78.67,-319.26 71.3,-326.88 81.81,-325.52 78.67,-319.26"/>
</a>
</g>
</g>
<!-- Node17 -->
<g id="Node000017" class="node">
<title>Node17</title>
<g id="a_Node000017"><a xlink:href="dc/d00/structglslstruct_1_1utils_1_1is__static__size__array__of__impl_3_01_test_00_01_t_00_01true_00_01_args_8_8_8_01_4.html" target="_top" xlink:title=" ">
<polygon fill="white" stroke="#666666" points="255.5,-118 139.75,-118 139.75,-62 255.5,-62 255.5,-118"/>
<text xml:space="preserve" text-anchor="start" x="147.75" y="-104.5" font-family="Helvetica,sans-Serif" font-size="10.00">glslstruct::utils::</text>
<text xml:space="preserve" text-anchor="start" x="147.75" y="-92.5" font-family="Helvetica,sans-Serif" font-size="10.00">is_static_size_array</text>
<text xml:space="preserve" text-anchor="start" x="147.75" y="-80.5" font-family="Helvetica,sans-Serif" font-size="10.00">_of_impl&lt; Test, T, true,</text>
<text xml:space="preserve" text-anchor="middle" x="197.62" y="-68.5" font-family="Helvetica,sans-Serif" font-size="10.00"> Args... &gt;</text>
</a>
</g>
</g>
<!-- Node11&#45;&gt;Node17 -->
<g id="edge35_Node000011_Node000017" class="edge">
<title>Node11&#45;&gt;Node17</title>
<g id="a_edge35_Node000011_Node000017"><a xlink:title=" ">
<path fill="none" stroke="#63b8ff" d="M52.72,-316.42C60.56,-275.27 82.58,-184.53 132.25,-127 134.86,-123.98 137.78,-121.14 140.91,-118.49"/>
<polygon fill="#63b8ff" stroke="#63b8ff" points="49.32,-315.56 51,-326.02 56.21,-316.8 49.32,-315.56"/>
</a>
</g>
</g>
<!-- Node20 -->
<g id="Node000020" class="node">
<title>Node20</title>
<g id="a_Node000020"><a xlink:href="df/db0/structglslstruct_1_1is__glsl__layout.html" target="_top" xlink:title="helper struct to check if type is glsl layout">
<polygon fill="white" stroke="#666666" points="242.38,-218 152.88,-218 152.88,-186 242.38,-186 242.38,-218"/>
<text xml:space="preserve" text-anchor="start" x="160.88" y="-204.5" font-family="Helvetica,sans-Serif" font-size="10.00">glslstruct::is_glsl</text>
<text xml:space="preserve" text-anchor="middle" x="197.62" y="-192.5" font-family="Helvetica,sans-Serif" font-size="10.00">_layout&lt; T &gt;</text>
</a>
</g>
</g>
<!-- Node11&#45;&gt;Node20 -->
<g id="edge36_Node000011_Node000020" class="edge">
<title>Node11&#45;&gt;Node20</title>
<g id="a_edge36_Node000011_Node000020"><a xlink:title=" ">
<path fill="none" stroke="#63b8ff" d="M59.73,-317.58C73.43,-292.98 99.49,-251.87 132.25,-227 138.36,-222.36 145.44,-218.48 152.62,-215.27"/>
<polygon fill="#63b8ff" stroke="#63b8ff" points="56.7,-315.8 55.03,-326.27 62.86,-319.13 56.7,-315.8"/>
</a>
</g>
</g>
<!-- Node21 -->
<g id="Node000021" class="node">
<title>Node21</title>
<g id="a_Node000021"><a xlink:href="de/d38/structglslstruct_1_1is__glsl__struct.html" target="_top" xlink:title="helper struct to check if type is glsl struct">
<polygon fill="white" stroke="#666666" points="242.38,-168 152.88,-168 152.88,-136 242.38,-136 242.38,-168"/>
<text xml:space="preserve" text-anchor="start" x="160.88" y="-154.5" font-family="Helvetica,sans-Serif" font-size="10.00">glslstruct::is_glsl</text>
<text xml:space="preserve" text-anchor="middle" x="197.62" y="-142.5" font-family="Helvetica,sans-Serif" font-size="10.00">_struct&lt; S &gt;</text>
</a>
</g>
</g>
<!-- Node11&#45;&gt;Node21 -->
<g id="edge37_Node000011_Node000021" class="edge">
<title>Node11&#45;&gt;Node21</title>
<g id="a_edge37_Node000011_Node000021"><a xlink:title=" ">
<path fill="none" stroke="#63b8ff" d="M54.73,-316.83C64.77,-282.84 88.92,-215.96 132.25,-177 138.13,-171.71 145.26,-167.49 152.6,-164.13"/>
<polygon fill="#63b8ff" stroke="#63b8ff" points="51.41,-315.72 52.07,-326.3 58.15,-317.62 51.41,-315.72"/>
</a>
</g>
</g>
<!-- Node22 -->
<g id="Node000022" class="node">
<title>Node22</title>
<g id="a_Node000022"><a xlink:href="d6/da6/structglslstruct_1_1utils_1_1is__array__of.html" target="_top" xlink:title="helper struct for is_array_of_v check">
<polygon fill="white" stroke="#666666" points="249.88,-490 145.38,-490 145.38,-446 249.88,-446 249.88,-490"/>
<text xml:space="preserve" text-anchor="start" x="153.38" y="-476.5" font-family="Helvetica,sans-Serif" font-size="10.00">glslstruct::utils::</text>
<text xml:space="preserve" text-anchor="start" x="153.38" y="-464.5" font-family="Helvetica,sans-Serif" font-size="10.00">is_array_of&lt; Test, T,</text>
<text xml:space="preserve" text-anchor="middle" x="197.62" y="-452.5" font-family="Helvetica,sans-Serif" font-size="10.00"> IsArray, Args &gt;</text>
</a>
</g>
</g>
<!-- Node11&#45;&gt;Node22 -->
<g id="edge38_Node000011_Node000022" class="edge">
<title>Node11&#45;&gt;Node22</title>
<g id="a_edge38_Node000011_Node000022"><a xlink:title=" ">
<path fill="none" stroke="#63b8ff" d="M61.85,-357.68C76.66,-379.36 102.86,-414.16 132.25,-437 136.27,-440.12 140.65,-443.04 145.17,-445.73"/>
<polygon fill="#63b8ff" stroke="#63b8ff" points="64.83,-355.85 56.38,-349.47 59.01,-359.73 64.83,-355.85"/>
</a>
</g>
</g>
<!-- Node23 -->
<g id="Node000023" class="node">
<title>Node23</title>
<g id="a_Node000023"><a xlink:href="d6/dc6/structglslstruct_1_1utils_1_1is__glsl__layout__struct.html" target="_top" xlink:title="helper struct to check if type is glsl struct with required layout">
<polygon fill="white" stroke="#666666" points="250.25,-428 145,-428 145,-384 250.25,-384 250.25,-428"/>
<text xml:space="preserve" text-anchor="start" x="153" y="-414.5" font-family="Helvetica,sans-Serif" font-size="10.00">glslstruct::utils::</text>
<text xml:space="preserve" text-anchor="start" x="153" y="-402.5" font-family="Helvetica,sans-Serif" font-size="10.00">is_glsl_layout_struct</text>
<text xml:space="preserve" text-anchor="middle" x="197.62" y="-390.5" font-family="Helvetica,sans-Serif" font-size="10.00">&lt; S, Layout &gt;</text>
</a>
</g>
</g>
<!-- Node11&#45;&gt;Node23 -->
<g id="edge39_Node000011_Node000023" class="edge">
<title>Node11&#45;&gt;Node23</title>
<g id="a_edge39_Node000011_Node000023"><a xlink:title=" ">
<path fill="none" stroke="#63b8ff" d="M82.27,-353.28C101.61,-362.2 126.38,-373.62 147.91,-383.54"/>
<polygon fill="#63b8ff" stroke="#63b8ff" points="83.77,-350.12 73.22,-349.11 80.84,-356.47 83.77,-350.12"/>
</a>
</g>
</g>
<!-- Node24 -->
<g id="Node000024" class="node">
<title>Node24</title>
<g id="a_Node000024"><a xlink:href="de/d5d/structglslstruct_1_1utils_1_1is__static__size__array__of__impl.html" target="_top" xlink:title="helper struct for is_static_size_array_of_v check">
<polygon fill="white" stroke="#666666" points="262.62,-366 132.62,-366 132.62,-310 262.62,-310 262.62,-366"/>
<text xml:space="preserve" text-anchor="start" x="140.62" y="-352.5" font-family="Helvetica,sans-Serif" font-size="10.00">glslstruct::utils::</text>
<text xml:space="preserve" text-anchor="start" x="140.62" y="-340.5" font-family="Helvetica,sans-Serif" font-size="10.00">is_static_size_array</text>
<text xml:space="preserve" text-anchor="start" x="140.62" y="-328.5" font-family="Helvetica,sans-Serif" font-size="10.00">_of_impl&lt; Test, T, IsArray,</text>
<text xml:space="preserve" text-anchor="middle" x="197.62" y="-316.5" font-family="Helvetica,sans-Serif" font-size="10.00"> Args &gt;</text>
</a>
</g>
</g>
<!-- Node11&#45;&gt;Node24 -->
<g id="edge40_Node000011_Node000024" class="edge">
<title>Node11&#45;&gt;Node24</title>
<g id="a_edge40_Node000011_Node000024"><a xlink:title=" ">
<path fill="none" stroke="#63b8ff" d="M100.03,-338C110.4,-338 121.44,-338 132.21,-338"/>
<polygon fill="#63b8ff" stroke="#63b8ff" points="100.17,-334.5 90.17,-338 100.17,-341.5 100.17,-334.5"/>
</a>
</g>
</g>
<!-- Node19 -->
<g id="Node000019" class="node">
<title>Node19</title>
<g id="a_Node000019"><a xlink:href="d0/d9f/structglslstruct_1_1utils_1_1is__static__size__array__of.html" target="_top" xlink:title="checks if value type is array of type and if type passes given test template struct">
<polygon fill="white" stroke="#666666" points="402,-286 299,-286 299,-242 402,-242 402,-286"/>
<text xml:space="preserve" text-anchor="start" x="307" y="-272.5" font-family="Helvetica,sans-Serif" font-size="10.00">glslstruct::utils::</text>
<text xml:space="preserve" text-anchor="start" x="307" y="-260.5" font-family="Helvetica,sans-Serif" font-size="10.00">is_static_size_array</text>
<text xml:space="preserve" text-anchor="middle" x="350.5" y="-248.5" font-family="Helvetica,sans-Serif" font-size="10.00">_of&lt; Test, T, Args &gt;</text>
</a>
</g>
</g>
<!-- Node18&#45;&gt;Node19 -->
<g id="edge34_Node000018_Node000019" class="edge">
<title>Node18&#45;&gt;Node19</title>
<g id="a_edge34_Node000018_Node000019"><a xlink:title=" ">
<path fill="none" stroke="#63b8ff" d="M269.05,-264C279.08,-264 289.23,-264 298.78,-264"/>
<polygon fill="#63b8ff" stroke="#63b8ff" points="269.34,-260.5 259.34,-264 269.34,-267.5 269.34,-260.5"/>
</a>
</g>
</g>
<!-- Node16 -->
<g id="Node000016" class="node">
<title>Node16</title>
<g id="a_Node000016"><a xlink:href="d1/d9b/class_test.html" target="_top" xlink:title=" ">
<polygon fill="white" stroke="#666666" points="65.5,-66 30.75,-66 30.75,-46 65.5,-46 65.5,-66"/>
<text xml:space="preserve" text-anchor="middle" x="48.12" y="-52.5" font-family="Helvetica,sans-Serif" font-size="10.00">Test</text>
</a>
</g>
</g>
<!-- Node16&#45;&gt;Node15 -->
<g id="edge41_Node000016_Node000015" class="edge">
<title>Node16&#45;&gt;Node15</title>
<g id="a_edge41_Node000016_Node000015"><a xlink:title=" ">
<path fill="none" stroke="#63b8ff" d="M76.71,-49.64C95.88,-45.22 122.02,-39.2 145,-33.9"/>
<polygon fill="#63b8ff" stroke="#63b8ff" points="76.19,-46.17 67.23,-51.83 77.76,-52.99 76.19,-46.17"/>
</a>
</g>
</g>
<!-- Node16&#45;&gt;Node17 -->
<g id="edge42_Node000016_Node000017" class="edge">
<title>Node16&#45;&gt;Node17</title>
<g id="a_edge42_Node000016_Node000017"><a xlink:title=" ">
<path fill="none" stroke="#63b8ff" d="M76.92,-62.41C94.52,-66.46 117.93,-71.86 139.37,-76.8"/>
<polygon fill="#63b8ff" stroke="#63b8ff" points="77.76,-59.01 67.23,-60.17 76.19,-65.83 77.76,-59.01"/>
</a>
</g>
</g>
<!-- Node13 -->
<g id="Node000013" class="node">
<title>Node13</title>
<g id="a_Node000013"><a xlink:title=" ">
<polygon fill="#e0e0e0" stroke="#999999" points="86.12,-571 10.12,-571 10.12,-551 86.12,-551 86.12,-571"/>
<text xml:space="preserve" text-anchor="middle" x="48.12" y="-557.5" font-family="Helvetica,sans-Serif" font-size="10.00">std::true_type</text>
</a>
</g>
</g>
<!-- Node13&#45;&gt;Node12 -->
<g id="edge43_Node000013_Node000012" class="edge">
<title>Node13&#45;&gt;Node12</title>
<g id="a_edge43_Node000013_Node000012"><a xlink:title=" ">
<path fill="none" stroke="#63b8ff" d="M97.56,-550.82C112.01,-547.78 127.92,-544.44 142.7,-541.33"/>
<polygon fill="#63b8ff" stroke="#63b8ff" points="96.89,-547.38 87.83,-552.87 98.33,-554.23 96.89,-547.38"/>
</a>
</g>
</g>
<!-- Node13&#45;&gt;Node14 -->
<g id="edge44_Node000013_Node000014" class="edge">
<title>Node13&#45;&gt;Node14</title>
<g id="a_edge44_Node000013_Node000014"><a xlink:title=" ">
<path fill="none" stroke="#63b8ff" d="M97.47,-571.16C112.49,-574.32 129.1,-577.81 144.38,-581.02"/>
<polygon fill="#63b8ff" stroke="#63b8ff" points="98.33,-567.77 87.83,-569.13 96.89,-574.62 98.33,-567.77"/>
</a>
</g>
</g>
</g>
</svg>
