<?xml version="1.0" encoding="UTF-8" standalone="no"?>
<!DOCTYPE svg PUBLIC "-//W3C//DTD SVG 1.1//EN"
 "http://www.w3.org/Graphics/SVG/1.1/DTD/svg11.dtd">
<!-- Generated by graphviz version 14.1.1 (20251213.1925)
 -->
<!-- Title: glslstruct::vec_type Pages: 1 -->
<svg width="246pt" height="319pt"
 viewBox="0.00 0.00 246.00 319.00" xmlns="http://www.w3.org/2000/svg" xmlns:xlink="http://www.w3.org/1999/xlink">

<svg id="main" version="1.1" xmlns="http://www.w3.org/2000/svg" xmlns:xlink="http://www.w3.org/1999/xlink" xml:space="preserve">

<style type="text/css"><![CDATA[
.node, .edge {opacity: 0.7;}
.node.selected, .edge.selected {opacity: 1;}
.edge:hover path { stroke: red; }
.edge:hover polygon { stroke: red; fill: red; }
]]></style>
<script type="application/ecmascript" xlink:href="../../svg.min.js"/>
<svg id="graph" class="graph">
<g id="graph0" class="graph" transform="scale(1 1) rotate(0) translate(4 315)">
<title>glslstruct::vec_type</title>
<!-- Node1 -->
<g id="Node000001" class="node">
<title>Node1</title>
<g id="a_Node000001"><a xlink:title="vec type container">
<polygon fill="#999999" stroke="#666666" points="136.88,-20 35.38,-20 35.38,0 136.88,0 136.88,-20"/>
<text xml:space="preserve" text-anchor="middle" x="86.12" y="-6.5" font-family="Helvetica,sans-Serif" font-size="10.00">glslstruct::vec_type</text>
</a>
</g>
</g>
<!-- Node2 -->
<g id="Node000002" class="node">
<title>Node2</title>
<g id="a_Node000002"><a xlink:href="../../d4/db0/classglslstruct_1_1type.html" target="_top" xlink:title=" ">
<polygon fill="white" stroke="#666666" points="138.75,-106 33.5,-106 33.5,-74 138.75,-74 138.75,-106"/>
<text xml:space="preserve" text-anchor="start" x="41.5" y="-92.5" font-family="Helvetica,sans-Serif" font-size="10.00">glslstruct::type&lt; vec</text>
<text xml:space="preserve" text-anchor="middle" x="86.12" y="-80.5" font-family="Helvetica,sans-Serif" font-size="10.00">_type &gt;</text>
</a>
</g>
</g>
<!-- Node2&#45;&gt;Node1 -->
<g id="edge1_Node000001_Node000002" class="edge">
<title>Node2&#45;&gt;Node1</title>
<g id="a_edge1_Node000001_Node000002"><a xlink:title=" ">
<path fill="none" stroke="#63b8ff" d="M86.12,-62.23C86.12,-47.77 86.12,-30.81 86.12,-20.49"/>
<polygon fill="#63b8ff" stroke="#63b8ff" points="82.63,-62.08 86.13,-72.08 89.63,-62.08 82.63,-62.08"/>
</a>
</g>
</g>
<!-- Node3 -->
<g id="Node000003" class="node">
<title>Node3</title>
<g id="a_Node000003"><a xlink:href="../../d6/df9/classglslstruct_1_1base__type.html" target="_top" xlink:title="base class for all glsl type containers">
<polygon fill="white" stroke="#666666" points="139.5,-237 32.75,-237 32.75,-217 139.5,-217 139.5,-237"/>
<text xml:space="preserve" text-anchor="middle" x="86.12" y="-223.5" font-family="Helvetica,sans-Serif" font-size="10.00">glslstruct::base_type</text>
</a>
</g>
</g>
<!-- Node3&#45;&gt;Node2 -->
<g id="edge2_Node000002_Node000003" class="edge">
<title>Node3&#45;&gt;Node2</title>
<g id="a_edge2_Node000002_Node000003"><a xlink:title=" ">
<path fill="none" stroke="#63b8ff" d="M86.12,-205.47C86.12,-178.22 86.12,-130.71 86.12,-106.35"/>
<polygon fill="#63b8ff" stroke="#63b8ff" points="82.63,-205.21 86.13,-215.21 89.63,-205.21 82.63,-205.21"/>
</a>
</g>
</g>
<!-- Node5 -->
<g id="Node000005" class="node">
<title>Node5</title>
<g id="a_Node000005"><a xlink:href="../../d4/db0/classglslstruct_1_1type.html" target="_top" xlink:title="intermediate glsl type containers">
<polygon fill="white" stroke="#666666" points="238.25,-180 106,-180 106,-160 238.25,-160 238.25,-180"/>
<text xml:space="preserve" text-anchor="middle" x="172.12" y="-166.5" font-family="Helvetica,sans-Serif" font-size="10.00">glslstruct::type&lt; Derived &gt;</text>
</a>
</g>
</g>
<!-- Node3&#45;&gt;Node5 -->
<g id="edge5_Node000005_Node000003" class="edge">
<title>Node3&#45;&gt;Node5</title>
<g id="a_edge5_Node000005_Node000003"><a xlink:title=" ">
<path fill="none" stroke="#63b8ff" d="M110.03,-210.71C125.25,-200.98 144.47,-188.69 157.46,-180.38"/>
<polygon fill="#63b8ff" stroke="#63b8ff" points="108.53,-207.52 101.99,-215.85 112.3,-213.42 108.53,-207.52"/>
</a>
</g>
</g>
<!-- Node4 -->
<g id="Node000004" class="node">
<title>Node4</title>
<g id="a_Node000004"><a xlink:title=" ">
<polygon fill="white" stroke="#666666" points="42.25,-311 0,-311 0,-291 42.25,-291 42.25,-311"/>
<text xml:space="preserve" text-anchor="middle" x="21.12" y="-297.5" font-family="Helvetica,sans-Serif" font-size="10.00">size_t</text>
</a>
</g>
</g>
<!-- Node4&#45;&gt;Node1 -->
<g id="edge6_Node000001_Node000004" class="edge">
<title>Node4&#45;&gt;Node1</title>
<g id="a_edge6_Node000001_Node000004"><a xlink:title=" ">
<path fill="none" stroke="#9a32cd" stroke-dasharray="5,2" d="M14.3,-280.28C9.95,-265.96 5.12,-246.01 5.12,-228 5.12,-228 5.12,-228 5.12,-89 5.12,-56.01 40.43,-32.58 64.42,-20.47"/>
<polygon fill="#9a32cd" stroke="#9a32cd" points="10.84,-280.96 17.26,-289.39 17.5,-278.79 10.84,-280.96"/>
</a>
</g>
<text xml:space="preserve" text-anchor="start" x="8.12" y="-166.5" font-family="Helvetica,sans-Serif" font-size="10.00" fill="grey">_length</text>
</g>
<!-- Node4&#45;&gt;Node3 -->
<g id="edge3_Node000003_Node000004" class="edge">
<title>Node4&#45;&gt;Node3</title>
<g id="a_edge3_Node000003_Node000004"><a xlink:title=" ">
<path fill="none" stroke="#9a32cd" stroke-dasharray="5,2" d="M37.29,-282.09C50.16,-267.84 67.65,-248.46 77.83,-237.19"/>
<polygon fill="#9a32cd" stroke="#9a32cd" points="34.74,-279.7 30.64,-289.46 39.94,-284.39 34.74,-279.7"/>
</a>
</g>
<text xml:space="preserve" text-anchor="start" x="64.36" y="-260.5" font-family="Helvetica,sans-Serif" font-size="10.00" fill="grey">_size</text>
</g>
<!-- Node5&#45;&gt;Node2 -->
<g id="edge4_Node000002_Node000005" class="edge">
<title>Node5&#45;&gt;Node2</title>
<g id="a_edge4_Node000002_Node000005"><a xlink:title=" ">
<path fill="none" stroke="orange" stroke-dasharray="5,2" d="M153.47,-152.08C138.49,-138.49 117.64,-119.58 103.12,-106.42"/>
<polygon fill="orange" stroke="orange" points="151.04,-154.6 160.8,-158.73 155.74,-149.42 151.04,-154.6"/>
</a>
</g>
<text xml:space="preserve" text-anchor="start" x="144.85" y="-129.5" font-family="Helvetica,sans-Serif" font-size="10.00" fill="grey">&lt; vec_type &gt;</text>
</g>
<!-- Node6 -->
<g id="Node000006" class="node">
<title>Node6</title>
<g id="a_Node000006"><a xlink:title=" ">
<polygon fill="white" stroke="#666666" points="217.62,-100 156.62,-100 156.62,-80 217.62,-80 217.62,-100"/>
<text xml:space="preserve" text-anchor="middle" x="187.12" y="-86.5" font-family="Helvetica,sans-Serif" font-size="10.00">ValueType</text>
</a>
</g>
</g>
<!-- Node6&#45;&gt;Node1 -->
<g id="edge7_Node000001_Node000006" class="edge">
<title>Node6&#45;&gt;Node1</title>
<g id="a_edge7_Node000001_Node000006"><a xlink:title=" ">
<path fill="none" stroke="#9a32cd" stroke-dasharray="5,2" d="M166.27,-72.89C145.79,-57.08 115.26,-33.5 98.41,-20.49"/>
<polygon fill="#9a32cd" stroke="#9a32cd" points="163.89,-75.48 173.94,-78.82 168.17,-69.94 163.89,-75.48"/>
</a>
</g>
<text xml:space="preserve" text-anchor="start" x="145.67" y="-43.5" font-family="Helvetica,sans-Serif" font-size="10.00" fill="grey">_type</text>
</g>
</g>
</svg>
</svg>

<style type='text/css'>
<![CDATA[
[data-mouse-over-selected='false'] { opacity: 0.7; }
[data-mouse-over-selected='true']  { opacity: 1.0; }
]]>
</style>
<script type="application/ecmascript"><![CDATA[
document.addEventListener('DOMContentLoaded', (event) => {
  highlightEdges();
  highlightAdjacentNodes();
});
]]></script>
</svg>
