<?xml version="1.0" encoding="UTF-8" standalone="no"?>
<!DOCTYPE svg PUBLIC "-//W3C//DTD SVG 1.1//EN"
 "http://www.w3.org/Graphics/SVG/1.1/DTD/svg11.dtd">
<!-- Generated by graphviz version 14.1.1 (20251213.1925)
 -->
<!-- Title: glslstruct::utils::is_static_size_array_of&lt; Test, T, Args &gt; Pages: 1 -->
<svg width="641pt" height="94pt"
 viewBox="0.00 0.00 641.00 94.00" xmlns="http://www.w3.org/2000/svg" xmlns:xlink="http://www.w3.org/1999/xlink">
<g id="graph0" class="graph" transform="scale(1 1) rotate(0) translate(4 90)">
<title>glslstruct::utils::is_static_size_array_of&lt; Test, T, Args &gt;</title>
<!-- Node1 -->
<g id="Node000001" class="node">
<title>Node1</title>
<g id="a_Node000001"><a xlink:title="checks if value type is array of type and if type passes given test template struct">
<polygon fill="#999999" stroke="#666666" points="633,-80 530,-80 530,-36 633,-36 633,-80"/>
<text xml:space="preserve" text-anchor="start" x="538" y="-66.5" font-family="Helvetica,sans-Serif" font-size="10.00">glslstruct::utils::</text>
<text xml:space="preserve" text-anchor="start" x="538" y="-54.5" font-family="Helvetica,sans-Serif" font-size="10.00">is_static_size_array</text>
<text xml:space="preserve" text-anchor="middle" x="581.5" y="-42.5" font-family="Helvetica,sans-Serif" font-size="10.00">_of&lt; Test, T, Args &gt;</text>
</a>
</g>
</g>
<!-- Node2 -->
<g id="Node000002" class="node">
<title>Node2</title>
<g id="a_Node000002"><a xlink:href="../../de/d5d/structglslstruct_1_1utils_1_1is__static__size__array__of__impl.html" target="_top" xlink:title=" ">
<polygon fill="white" stroke="#666666" points="493,-86 372.75,-86 372.75,-30 493,-30 493,-86"/>
<text xml:space="preserve" text-anchor="start" x="380.75" y="-72.5" font-family="Helvetica,sans-Serif" font-size="10.00">glslstruct::utils::</text>
<text xml:space="preserve" text-anchor="start" x="380.75" y="-60.5" font-family="Helvetica,sans-Serif" font-size="10.00">is_static_size_array</text>
<text xml:space="preserve" text-anchor="start" x="380.75" y="-48.5" font-family="Helvetica,sans-Serif" font-size="10.00">_of_impl&lt; Test, T, is</text>
<text xml:space="preserve" text-anchor="middle" x="432.88" y="-36.5" font-family="Helvetica,sans-Serif" font-size="10.00">_array_v&lt; T &gt;, Args... &gt;</text>
</a>
</g>
</g>
<!-- Node2&#45;&gt;Node1 -->
<g id="edge1_Node000001_Node000002" class="edge">
<title>Node2&#45;&gt;Node1</title>
<g id="a_edge1_Node000001_Node000002"><a xlink:title=" ">
<path fill="none" stroke="#63b8ff" d="M504.53,-58C512.97,-58 521.46,-58 529.55,-58"/>
<polygon fill="#63b8ff" stroke="#63b8ff" points="504.6,-54.5 494.6,-58 504.6,-61.5 504.6,-54.5"/>
</a>
</g>
</g>
<!-- Node3 -->
<g id="Node000003" class="node">
<title>Node3</title>
<g id="a_Node000003"><a xlink:title=" ">
<polygon fill="white" stroke="#666666" points="80.5,-66 0,-66 0,-46 80.5,-46 80.5,-66"/>
<text xml:space="preserve" text-anchor="middle" x="40.25" y="-52.5" font-family="Helvetica,sans-Serif" font-size="10.00">std::false_type</text>
</a>
</g>
</g>
<!-- Node3&#45;&gt;Node2 -->
<g id="edge2_Node000002_Node000003" class="edge">
<title>Node3&#45;&gt;Node2</title>
<g id="a_edge2_Node000002_Node000003"><a xlink:title=" ">
<path fill="none" stroke="#63b8ff" d="M92.1,-62.6C100.57,-63.53 109.28,-64.38 117.5,-65 222.67,-72.97 249.6,-78.13 354.75,-70 360.56,-69.55 366.59,-68.91 372.61,-68.17"/>
<polygon fill="#63b8ff" stroke="#63b8ff" points="92.6,-59.14 82.27,-61.47 91.8,-66.09 92.6,-59.14"/>
</a>
</g>
</g>
<!-- Node4 -->
<g id="Node000004" class="node">
<title>Node4</title>
<g id="a_Node000004"><a xlink:href="../../de/d5d/structglslstruct_1_1utils_1_1is__static__size__array__of__impl.html" target="_top" xlink:title="helper struct for is_static_size_array_of_v check">
<polygon fill="white" stroke="#666666" points="247.5,-56 117.5,-56 117.5,0 247.5,0 247.5,-56"/>
<text xml:space="preserve" text-anchor="start" x="125.5" y="-42.5" font-family="Helvetica,sans-Serif" font-size="10.00">glslstruct::utils::</text>
<text xml:space="preserve" text-anchor="start" x="125.5" y="-30.5" font-family="Helvetica,sans-Serif" font-size="10.00">is_static_size_array</text>
<text xml:space="preserve" text-anchor="start" x="125.5" y="-18.5" font-family="Helvetica,sans-Serif" font-size="10.00">_of_impl&lt; Test, T, IsArray,</text>
<text xml:space="preserve" text-anchor="middle" x="182.5" y="-6.5" font-family="Helvetica,sans-Serif" font-size="10.00"> Args &gt;</text>
</a>
</g>
</g>
<!-- Node3&#45;&gt;Node4 -->
<g id="edge4_Node000004_Node000003" class="edge">
<title>Node3&#45;&gt;Node4</title>
<g id="a_edge4_Node000004_Node000003"><a xlink:title=" ">
<path fill="none" stroke="#63b8ff" d="M91.95,-45.88C100.13,-44.25 108.69,-42.54 117.14,-40.85"/>
<polygon fill="#63b8ff" stroke="#63b8ff" points="91.3,-42.44 82.17,-47.83 92.67,-49.3 91.3,-42.44"/>
</a>
</g>
</g>
<!-- Node4&#45;&gt;Node2 -->
<g id="edge3_Node000002_Node000004" class="edge">
<title>Node4&#45;&gt;Node2</title>
<g id="a_edge3_Node000002_Node000004"><a xlink:title=" ">
<path fill="none" stroke="orange" stroke-dasharray="5,2" d="M258.95,-27.77C288.93,-28.66 323.63,-30.9 354.75,-36 360.52,-36.94 366.47,-38.17 372.4,-39.56"/>
<polygon fill="orange" stroke="orange" points="259.3,-24.28 249.22,-27.53 259.13,-31.28 259.3,-24.28"/>
</a>
</g>
<text xml:space="preserve" text-anchor="start" x="268.5" y="-57.5" font-family="Helvetica,sans-Serif" font-size="10.00" fill="grey">&lt; Test, T, is_array</text>
<text xml:space="preserve" text-anchor="start" x="268.5" y="-41.5" font-family="Helvetica,sans-Serif" font-size="10.00" fill="grey">  _v&lt; T &gt;, Args... &gt;</text>
</g>
</g>
</svg>
